<?xml version="1.0" standalone="no"?>
<!DOCTYPE svg PUBLIC "-//W3C//DTD SVG 20010904//EN"
 "http://www.w3.org/TR/2001/REC-SVG-20010904/DTD/svg10.dtd">
<svg version="1.0" xmlns="http://www.w3.org/2000/svg"
 width="165.000000pt" height="165.000000pt" viewBox="0 0 165.000000 165.000000"
 preserveAspectRatio="xMidYMid meet">
<metadata>
Created by potrace 1.14, written by Peter Selinger 2001-2017
</metadata>
<g transform="translate(0.000000,165.000000) scale(0.100000,-0.100000)"
fill="#000000" stroke="none">
<path d="M675 1644 c-198 -47 -318 -134 -479 -347 -72 -96 -101 -148 -136
-247 -21 -56 -24 -84 -24 -210 -1 -120 3 -159 22 -227 68 -253 226 -450 439
-550 98 -45 103 -44 105 20 1 33 3 41 5 21 4 -30 8 -33 66 -48 58 -14 216 -16
272 -3 53 13 101 28 112 35 10 6 13 64 14 223 0 117 0 221 0 230 -1 10 -13 19
-31 23 -37 7 -113 81 -128 124 -14 42 -6 41 11 0 25 -58 102 -118 152 -118 26
0 17 18 -15 29 -95 33 -139 110 -146 257 -4 95 -3 102 26 161 40 81 83 114
148 116 40 1 56 -4 85 -26 92 -70 136 -243 98 -385 -14 -52 -72 -116 -121
-136 l-41 -16 2 -213 c3 -255 6 -287 27 -287 43 0 237 133 299 204 77 89 132
194 162 313 26 101 22 285 -8 397 -23 88 -102 259 -152 333 -106 154 -295 276
-492 316 -62 13 -234 20 -272 11z m303 -44 c66 -15 62 -24 -4 -13 -155 27
-360 -9 -528 -93 -95 -48 -97 -47 -31 3 62 48 153 91 230 110 78 20 234 17
333 -7z m216 -118 c84 -44 196 -150 255 -241 60 -94 82 -172 88 -321 7 -152 0
-158 -22 -18 -11 69 -55 192 -99 275 -77 144 -172 252 -281 318 -73 45 -36 36
59 -13z m-641 23 c-198 -86 -371 -317 -400 -533 -26 -197 22 -425 127 -607
l41 -70 -41 45 c-184 203 -231 469 -135 767 47 144 114 237 224 310 65 43 180
102 201 102 8 0 1 -6 -17 -14z m636 -363 c84 -57 133 -173 134 -318 0 -93 -26
-167 -78 -219 -35 -35 -125 -79 -109 -54 3 5 11 9 18 9 31 0 95 61 123 118 24
48 30 74 32 135 1 42 -3 95 -10 119 -6 24 -12 48 -14 53 -10 46 -65 126 -102
150 -15 11 -44 22 -63 26 l-35 7 31 1 c19 1 47 -10 73 -27z m-724 -198 c2
-164 5 -208 16 -215 31 -19 33 -7 43 275 3 82 8 151 11 154 3 3 5 -8 6 -24 7
-377 12 -425 40 -397 9 9 15 142 18 382 1 24 4 42 7 38 7 -6 11 -89 14 -257 3
-144 8 -170 31 -170 22 0 21 -14 23 237 1 101 5 186 9 189 6 7 11 -261 7 -436
-1 -76 -17 -104 -78 -136 l-41 -22 -1 -248 c0 -136 -2 -250 -4 -252 -6 -5
-125 57 -171 89 -142 99 -261 277 -310 464 -30 117 -37 276 -15 365 6 25 12
52 14 60 2 8 11 31 20 50 9 19 14 26 11 16 -6 -19 -18 -72 -30 -131 -4 -16 -8
-79 -11 -140 -7 -217 59 -386 212 -539 62 -62 231 -182 242 -171 3 3 7 96 7
206 1 191 0 202 -20 216 -20 15 -20 15 2 9 37 -11 35 11 -4 31 -20 11 -44 34
-54 54 -10 18 -22 39 -27 44 -5 6 -8 18 -7 26 2 8 6 80 10 160 5 79 9 158 11
174 1 17 3 50 3 74 1 24 4 41 8 38 3 -4 7 -100 8 -213z m1121 -84 c29 -285
-63 -503 -281 -667 -48 -36 -144 -93 -157 -93 -2 0 -3 26 -4 58 -1 32 1 41 3
20 3 -28 9 -38 22 -38 29 0 174 113 224 174 64 78 94 147 127 294 38 165 43
194 44 274 1 86 13 75 22 -22z m-890 -255 c-15 -19 -40 -42 -56 -50 -15 -8
-30 -20 -33 -27 -4 -8 -6 -7 -6 4 -1 9 8 19 19 23 23 7 90 72 90 88 0 6 3 7 6
4 4 -4 -5 -22 -20 -42z m-215 -32 c13 -16 12 -17 -3 -4 -17 13 -22 21 -14 21
2 0 10 -8 17 -17z m656 -145 c-3 -7 -5 -2 -5 12 0 14 2 19 5 13 2 -7 2 -19 0
-25z m6 -53 c-7 -21 -13 -19 -13 6 0 11 4 18 10 14 5 -3 7 -12 3 -20z m-536
-17 c-3 -8 -6 -5 -6 6 -1 11 2 17 5 13 3 -3 4 -12 1 -19z m538 -17 c3 -5 1
-12 -5 -16 -5 -3 -10 1 -10 9 0 18 6 21 15 7z m0 -81 c1 -22 -1 -37 -4 -34 -3
3 -6 23 -6 44 0 21 2 36 5 34 3 -3 5 -23 5 -44z m-538 18 c-3 -8 -6 -5 -6 6
-1 11 2 17 5 13 3 -3 4 -12 1 -19z m0 -90 c-3 -7 -5 -2 -5 12 0 14 2 19 5 13
2 -7 2 -19 0 -25z m0 -40 c-3 -8 -6 -5 -6 6 -1 11 2 17 5 13 3 -3 4 -12 1 -19z"/>
<path d="M1020 54 c-68 -21 -115 -26 -238 -26 -104 0 -143 -8 -108 -21 8 -3
65 -5 128 -5 111 1 248 24 270 46 17 17 -5 20 -52 6z"/>
</g>
</svg>
