<svg width="321" height="256" viewBox="0 0 321 256" fill="none" xmlns="http://www.w3.org/2000/svg">
<path d="M122.68 55.5039C77.3732 20.3331 197.405 8.10016 246.83 56.3406C296.255 104.581 139.093 96.8297 216.993 176.559C294.89 256.29 244.454 276.589 84.9843 210.305C-74.4851 144.021 167.987 90.6744 122.68 55.5039Z" fill="url(#paint0_linear_214_383)"/>
<path fill-rule="evenodd" clip-rule="evenodd" d="M113.186 43.4087C114.126 46.9479 117.162 50.9498 122.811 55.3356C125.665 57.551 127.406 59.8531 128.175 62.245C128.944 64.6399 128.732 67.1 127.726 69.6137C125.721 74.6247 120.547 79.8825 113.612 85.375C106.668 90.8737 97.9227 96.6339 88.7326 102.641C88.2669 102.946 87.7998 103.251 87.3317 103.557C78.5641 109.285 69.4545 115.238 61.1489 121.408C52.3991 127.909 44.5525 134.644 38.9449 141.604C33.3369 148.564 29.9843 155.729 30.1832 163.094C30.3819 170.454 34.1286 178.062 42.8207 185.907C51.515 193.755 65.1433 201.827 85.0665 210.108C124.928 226.677 157.969 237.832 183.891 244C209.824 250.172 228.597 251.343 239.94 247.983C245.605 246.304 249.392 243.505 251.313 239.656C253.235 235.806 253.308 230.863 251.452 224.851C247.733 212.824 236.311 196.637 216.839 176.708C197.351 156.762 192.497 142.221 195.534 130.868C198.566 119.536 209.441 111.485 221.122 104.459C223.947 102.761 226.822 101.12 229.649 99.5062L229.953 99.3341C232.878 97.6645 235.748 96.0231 238.458 94.3734C243.881 91.0723 248.644 87.7488 251.905 84.1219C255.162 80.4997 256.905 76.5934 256.332 72.1136C255.754 67.6223 252.844 62.5089 246.68 56.4931C222.027 32.4302 179.731 23.4331 149.241 24.8562C141.622 25.2118 134.748 26.2177 129.077 27.7985C123.403 29.3804 118.952 31.5327 116.161 34.168C113.38 36.7941 112.252 39.8913 113.186 43.4087ZM246.83 56.3406C197.405 8.10016 77.3732 20.3331 122.68 55.5039C139.957 68.9159 115.386 84.9712 87.2132 103.379C41.5084 133.243 -13.6728 169.298 84.9844 210.305C244.454 276.589 294.89 256.29 216.993 176.559C173.341 131.883 203.498 114.675 229.756 99.6914C250.359 87.9357 268.56 77.5495 246.83 56.3406Z" fill="#FFDC81"/>
<path d="M199.666 94.1667C197.205 93.1147 192.242 90.8956 190.068 89.9175L186.684 98.7034C189.405 99.2655 195.614 100.685 198.678 101.865C202.507 103.34 203.006 104.305 206.107 106.094C209.209 107.884 216.841 105.643 216.777 101.133C216.711 96.6228 213.095 94.6601 211.245 94.1667C209.396 93.673 202.742 95.4814 199.666 94.1667Z" fill="#F4B88E"/>
<path d="M175.545 79.1616C175.545 79.1616 197.606 91.354 198.992 92.3855C200.379 93.417 196.841 102.96 195.217 102.51C192.828 101.85 174.253 97.3856 166.074 92.7125C156.947 87.4976 159.985 72.0552 162.262 60.7944C163.53 54.5252 172.655 49.4728 179.059 49.7965C182.535 55.2096 176.605 73.0624 175.545 79.1616Z" fill="#FF9201"/>
<path d="M175.545 79.1616C175.545 79.1616 197.606 91.354 198.992 92.3855C200.379 93.417 196.841 102.96 195.217 102.51C192.828 101.85 174.253 97.3856 166.074 92.7125C156.947 87.4976 159.985 72.0552 162.262 60.7944C163.53 54.5252 172.655 49.4728 179.059 49.7965C182.535 55.2096 176.605 73.0624 175.545 79.1616Z" fill="url(#paint1_linear_214_383)"/>
<path d="M198.992 92.3862C200.378 93.4177 196.84 102.96 195.216 102.511C194.745 102.381 193.642 102.102 192.113 101.703C193.406 98.7564 196.592 92.7685 198.992 92.3862Z" fill="#F54901"/>
<path fill-rule="evenodd" clip-rule="evenodd" d="M210.027 107.55C208.262 106.116 207.373 104.746 207.109 103.878L207.723 103.692C207.937 104.396 208.725 105.667 210.432 107.054C212.132 108.435 214.728 109.917 218.527 111.05C223.398 112.504 227.712 116.36 227.9 121.787C228.088 127.202 224.16 134.006 212.975 141.351C212.718 141.542 212.132 142.133 211.529 143.015C210.925 143.898 210.322 145.047 210.024 146.335C209.726 147.62 209.733 149.038 210.339 150.476C210.946 151.914 212.167 153.402 214.346 154.801L213.999 155.339C211.736 153.887 210.416 152.307 209.748 150.724C209.08 149.14 209.077 147.581 209.399 146.191C209.72 144.804 210.364 143.582 210.999 142.654C211.63 141.732 212.268 141.076 212.6 140.831L212.607 140.826L212.614 140.822C223.749 133.511 227.434 126.881 227.258 121.809C227.083 116.749 223.052 113.068 218.343 111.663C214.474 110.509 211.8 108.991 210.027 107.55Z" fill="#2F24FF"/>
<path fill-rule="evenodd" clip-rule="evenodd" d="M207.176 108.961L210.098 100.865L211.506 101.371L208.585 109.467C207.946 111.239 207.825 113.155 208.237 114.993L216.701 152.741L215.24 153.067L206.776 115.319C206.302 113.205 206.441 111 207.176 108.961Z" fill="#2F24FF"/>
<path fill-rule="evenodd" clip-rule="evenodd" d="M237.278 223.691C239.581 223.691 241.799 224.322 243.73 225.38L246.365 223.394C243.471 221.592 240.171 220.777 237.278 220.922C227.428 221.41 220.065 228.497 220.541 239.219L223.527 237.543C223.683 229.709 229.859 223.691 237.278 223.691Z" fill="#2F24FF"/>
<path d="M238.576 230.012C238.535 229.715 238.105 229.715 238.065 230.012L237.087 236.96C237.068 237.105 236.931 237.203 236.786 237.178L229.859 235.958C229.564 235.906 229.431 236.312 229.701 236.444L236.025 239.518C236.157 239.582 236.209 239.742 236.14 239.87L232.836 246.065C232.695 246.33 233.041 246.582 233.249 246.366L238.135 241.316C238.236 241.212 238.405 241.212 238.505 241.316L243.392 246.366C243.599 246.582 243.946 246.33 243.805 246.065L240.501 239.87C240.432 239.742 240.484 239.582 240.616 239.518L246.94 236.444C247.209 236.312 247.077 235.906 246.782 235.958L239.855 237.178C239.709 237.203 239.573 237.105 239.553 236.96L238.576 230.012Z" fill="#2B2699"/>
<path fill-rule="evenodd" clip-rule="evenodd" d="M238.089 252.772C230.445 252.772 224.25 246.592 224.25 238.969C224.25 231.345 230.445 225.165 238.089 225.165C245.732 225.165 251.927 231.345 251.927 238.969C251.927 246.592 245.732 252.772 238.089 252.772ZM238.089 246.306C234.025 246.306 230.732 243.021 230.732 238.969C230.732 234.916 234.025 231.631 238.089 231.631C242.152 231.631 245.443 234.916 245.443 238.969C245.443 243.021 242.152 246.306 238.089 246.306Z" fill="url(#paint2_linear_214_383)"/>
<path fill-rule="evenodd" clip-rule="evenodd" d="M238.089 252.911C230.445 252.911 224.25 246.731 224.25 239.106C224.25 231.484 230.445 225.304 238.089 225.304C245.732 225.304 251.927 231.484 251.927 239.106C251.927 246.731 245.732 252.911 238.089 252.911ZM238.089 249.517C232.325 249.517 227.652 244.856 227.652 239.106C227.652 233.357 232.325 228.696 238.089 228.696C243.852 228.696 248.525 233.357 248.525 239.106C248.525 244.856 243.852 249.517 238.089 249.517Z" fill="url(#paint3_linear_214_383)"/>
<path fill-rule="evenodd" clip-rule="evenodd" d="M238.089 244.077C235.336 244.077 233.106 241.852 233.106 239.106C233.106 236.361 235.336 234.135 238.089 234.135C240.841 234.135 243.072 236.361 243.072 239.106C243.072 241.852 240.841 244.077 238.089 244.077ZM238.089 245.161C234.738 245.161 232.02 242.449 232.02 239.106C232.02 235.763 234.738 233.052 238.089 233.052C241.44 233.052 244.158 235.763 244.158 239.106C244.158 242.449 241.44 245.161 238.089 245.161Z" fill="#FEE201"/>
<path d="M223.655 150.089C223.732 151.222 224.109 152.12 224.494 152.094C224.879 152.068 225.127 151.127 225.05 149.993C224.97 148.86 224.596 147.962 224.211 147.988C223.826 148.015 223.576 148.955 223.655 150.089Z" fill="#F5EB02"/>
<path d="M224.256 148.147C224.209 147.46 223.494 147.027 222.861 147.302L219.957 148.567C219.215 148.89 218.758 149.643 218.813 150.447C218.869 151.267 219.444 151.959 220.242 152.165L223.27 152.946C223.929 153.117 224.562 152.593 224.515 151.915L224.256 148.147Z" fill="#2F24FF"/>
<path fill-rule="evenodd" clip-rule="evenodd" d="M220.908 151.317L220.044 151.376L220.183 153.396C220.213 153.808 220.147 154.184 219.958 154.456C219.783 154.709 219.454 154.943 218.793 154.988L218.853 155.849C219.717 155.79 220.316 155.461 220.671 154.946C221.013 154.45 221.081 153.851 221.047 153.337L220.908 151.317Z" fill="#2F24FF"/>
<path fill-rule="evenodd" clip-rule="evenodd" d="M223.292 148.256C223.264 148.131 223.138 148.053 223.014 148.082C222.448 148.213 221.064 148.673 220.016 149.488C219.913 149.567 219.896 149.713 219.975 149.815C220.054 149.916 220.2 149.934 220.303 149.855C221.278 149.095 222.591 148.657 223.119 148.535C223.243 148.506 223.322 148.381 223.292 148.256Z" fill="#F5EB02"/>
<path fill-rule="evenodd" clip-rule="evenodd" d="M217.071 147.261L235.852 223.776C236.209 225.235 235.313 226.709 233.85 227.066C232.387 227.422 230.912 226.53 230.554 225.071L211.773 148.555L217.071 147.261Z" fill="#8BC151"/>
<path d="M211.772 148.555L217.069 147.261L220.452 161.045C220.501 161.248 220.715 161.367 220.914 161.304C221.095 161.246 221.202 161.058 221.157 160.873L217.582 146.346C217.297 145.199 216.136 144.499 214.986 144.785L213.149 145.242C212.004 145.527 211.307 146.683 211.591 147.825L211.772 148.555Z" fill="#2F24FF"/>
<path fill-rule="evenodd" clip-rule="evenodd" d="M215.138 151.128C215.517 151.041 215.895 151.275 215.983 151.653L217.435 157.883C217.523 158.261 217.287 158.638 216.909 158.726C216.53 158.814 216.152 158.579 216.064 158.201L214.612 151.971C214.524 151.593 214.76 151.216 215.138 151.128Z" fill="white"/>
<path d="M214.518 101.178C214.518 103.854 212.344 106.023 209.661 106.023C206.979 106.023 204.805 103.854 204.805 101.178C204.805 98.5022 206.979 96.333 209.661 96.333C212.344 96.333 214.518 98.5022 214.518 101.178Z" fill="#08077E"/>
<path d="M212.92 101.203C212.92 103.011 211.463 104.476 209.665 104.476C207.867 104.476 206.41 103.011 206.41 101.203C206.41 99.3958 207.867 97.9307 209.665 97.9307C211.463 97.9307 212.92 99.3958 212.92 101.203Z" fill="#050040"/>
<path d="M211.714 101.204C211.714 102.343 210.796 103.266 209.664 103.266C208.531 103.266 207.613 102.343 207.613 101.204C207.613 100.066 208.531 99.1426 209.664 99.1426C210.796 99.1426 211.714 100.066 211.714 101.204Z" fill="white"/>
<path d="M242.104 236.531L229.807 191.775L221.591 193.321L224.204 203.937C225.975 210.588 209.043 231.753 207.641 234.185H214.837L225.975 218.187C226.486 217.555 227.502 217.781 227.694 218.571L234.093 238.464C234.63 240.657 236.839 242.01 239.042 241.491C241.264 240.971 242.636 238.746 242.104 236.531Z" fill="url(#paint4_linear_214_383)"/>
<path d="M241.62 236.881C241.62 238.824 240.04 240.401 238.089 240.401C236.139 240.401 234.559 238.824 234.559 236.881C234.559 234.935 236.139 233.359 238.089 233.359C240.04 233.359 241.62 234.935 241.62 236.881Z" fill="#0F005F"/>
<path d="M240.32 236.881C240.32 238.11 239.322 239.106 238.09 239.106C236.858 239.106 235.859 238.11 235.859 236.881C235.859 235.652 236.858 234.656 238.09 234.656C239.322 234.656 240.32 235.652 240.32 236.881Z" fill="#3E1E8D"/>
<path d="M226.159 178.222L218.352 180.176L221.592 193.052L229.397 191.098L226.159 178.222Z" fill="#2F24FF"/>
<path d="M228.22 186.431L220.414 188.386L220.985 190.662L228.793 188.707L228.22 186.431Z" fill="#FFFACE"/>
<path d="M226.769 180.653L218.961 182.608L219.485 184.688L227.291 182.733L226.769 180.653Z" fill="#FFFACE"/>
<path d="M227.54 178.162C227.473 177.866 227.18 177.68 226.883 177.746L217.677 179.8C217.379 179.866 217.193 180.159 217.259 180.455C217.326 180.75 217.619 180.936 217.916 180.87L227.123 178.817C227.42 178.751 227.606 178.458 227.54 178.162Z" fill="#2F24FF"/>
<path d="M231.775 190.727C231.614 190.009 230.9 189.557 230.181 189.718L220.352 191.91C219.634 192.07 219.18 192.782 219.341 193.5C219.503 194.218 220.216 194.67 220.936 194.51L230.763 192.318C231.484 192.157 231.935 191.445 231.775 190.727Z" fill="#2F24FF"/>
<path d="M107.134 229.549C107.093 229.252 106.664 229.252 106.623 229.549L105.646 236.497C105.625 236.642 105.489 236.74 105.345 236.714L98.4174 235.494C98.1225 235.443 97.9901 235.848 98.2594 235.981L104.583 239.055C104.714 239.119 104.766 239.279 104.698 239.407L101.393 245.602C101.253 245.866 101.599 246.116 101.807 245.903L106.693 240.853C106.794 240.749 106.963 240.749 107.064 240.853L111.949 245.903C112.158 246.116 112.504 245.866 112.363 245.602L109.059 239.407C108.991 239.279 109.042 239.119 109.174 239.055L115.498 235.981C115.767 235.848 115.634 235.443 115.34 235.494L108.412 236.714C108.268 236.74 108.132 236.642 108.111 236.497L107.134 229.549Z" fill="#2B2699"/>
<path fill-rule="evenodd" clip-rule="evenodd" d="M106.646 252.309C99.004 252.309 92.8086 246.129 92.8086 238.504C92.8086 230.882 99.004 224.702 106.646 224.702C114.289 224.702 120.485 230.882 120.485 238.504C120.485 246.129 114.289 252.309 106.646 252.309ZM106.646 245.843C102.584 245.843 99.2908 242.558 99.2908 238.504C99.2908 234.453 102.584 231.168 106.646 231.168C110.709 231.168 114.002 234.453 114.002 238.504C114.002 242.558 110.709 245.843 106.646 245.843Z" fill="url(#paint5_linear_214_383)"/>
<path fill-rule="evenodd" clip-rule="evenodd" d="M106.646 252.446C99.004 252.446 92.8086 246.266 92.8086 238.641C92.8086 231.019 99.004 224.838 106.646 224.838C114.289 224.838 120.485 231.019 120.485 238.641C120.485 246.266 114.289 252.446 106.646 252.446ZM106.646 249.052C100.883 249.052 96.2106 244.39 96.2106 238.641C96.2106 232.892 100.883 228.23 106.646 228.23C112.41 228.23 117.082 232.892 117.082 238.641C117.082 244.39 112.41 249.052 106.646 249.052Z" fill="url(#paint6_linear_214_383)"/>
<path fill-rule="evenodd" clip-rule="evenodd" d="M106.647 243.614C103.894 243.614 101.663 241.389 101.663 238.643C101.663 235.898 103.894 233.673 106.647 233.673C109.399 233.673 111.63 235.898 111.63 238.643C111.63 241.389 109.399 243.614 106.647 243.614ZM106.647 244.696C103.295 244.696 100.578 241.986 100.578 238.643C100.578 235.3 103.295 232.589 106.647 232.589C109.998 232.589 112.715 235.3 112.715 238.643C112.715 241.986 109.998 244.696 106.647 244.696Z" fill="#FEE201"/>
<path d="M155.018 239.219H151.763L149.645 244.578H152.9L155.018 239.219Z" fill="#EDD642"/>
<path d="M214.846 236.228H106.086V238.805C106.086 241.992 108.677 244.578 111.873 244.578H209.059C212.255 244.578 214.846 241.992 214.846 238.805V236.228Z" fill="url(#paint7_linear_214_383)"/>
<path d="M106.086 236.043C106.086 234.865 107.044 233.909 108.225 233.909H214.847V239.217H106.086V236.043Z" fill="url(#paint8_linear_214_383)"/>
<path d="M148.35 239.217H145.095L142.977 244.578H146.232L148.35 239.217Z" fill="url(#paint9_linear_214_383)"/>
<path d="M192.073 233.916H188.817L186.699 239.217H189.954L192.073 233.916Z" fill="url(#paint10_linear_214_383)"/>
<path d="M237.316 219.134L236.435 216.047L230.883 215.268L231.668 218.419L237.316 219.134Z" fill="url(#paint11_linear_214_383)"/>
<path d="M143.651 239.217H140.396L138.277 244.578H141.532L143.651 239.217Z" fill="url(#paint12_linear_214_383)"/>
<path d="M187.373 233.916H184.118L182 239.217H185.255L187.373 233.916Z" fill="url(#paint13_linear_214_383)"/>
<path d="M236.011 214.366L235.147 211.246L229.555 210.415L230.34 213.566L236.011 214.366Z" fill="url(#paint14_linear_214_383)"/>
<path d="M138.948 239.217H135.693L133.574 244.578H136.829L138.948 239.217Z" fill="url(#paint15_linear_214_383)"/>
<path d="M182.67 233.916H179.415L177.297 239.217H180.552L182.67 233.916Z" fill="url(#paint16_linear_214_383)"/>
<path d="M234.565 209.12L233.708 205.984L228.094 205.175L228.879 208.326L234.565 209.12Z" fill="url(#paint17_linear_214_383)"/>
<path d="M134.248 239.217H130.993L128.875 244.578H132.13L134.248 239.217Z" fill="url(#paint18_linear_214_383)"/>
<path d="M177.967 233.916H174.712L172.594 239.217H175.849L177.967 233.916Z" fill="url(#paint19_linear_214_383)"/>
<path d="M233.316 204.579L232.458 201.43L226.789 200.66L227.574 203.811L233.316 204.579Z" fill="url(#paint20_linear_214_383)"/>
<path d="M129.545 239.217H126.29L124.172 244.578H127.427L129.545 239.217Z" fill="url(#paint21_linear_214_383)"/>
<path d="M173.264 233.916H170.009L167.891 239.217H171.146L173.264 233.916Z" fill="url(#paint22_linear_214_383)"/>
<path d="M232.019 199.881L231.162 196.762L225.492 195.992L226.277 199.143L232.019 199.881Z" fill="url(#paint23_linear_214_383)"/>
<path d="M90.2968 220.55H81.5498C81.2217 220.55 81.0631 220.951 81.3032 221.175L84.2264 223.895H90.2968V220.55Z" fill="#FEE201"/>
<path d="M94.1308 226.406C110.265 216.781 119.809 227.415 122.565 233.935H128.874C126.598 221.666 113.38 216.128 105.632 216.128H80.7136C79.3103 216.128 78.8319 217.992 80.0609 218.669L94.1308 226.406Z" fill="url(#paint24_linear_214_383)"/>
<path d="M169.789 211.059C170.152 211.295 170.658 211.219 171.18 211.091C175.025 210.257 180.063 210.787 182.62 211.272C182.62 211.272 180.442 221.824 180.632 227.034C180.823 232.241 172.354 227.319 170.953 228.085L169.789 211.059Z" fill="#F4B88E"/>
<path d="M180.633 227.034C180.824 232.241 172.354 227.32 170.954 228.086L170.68 224.077C172.546 224.034 177.172 223.894 180.743 223.68C180.644 224.915 180.598 226.065 180.633 227.034Z" fill="#192671"/>
<path d="M169.698 230.803C169.758 230.502 169.788 229.696 169.788 228.977C169.788 228.689 169.778 228.392 169.836 228.049C173.593 228.791 174.988 230.579 175.216 231.381C172.697 231.33 170.524 231.264 169.473 231.191C169.523 231.016 169.598 230.89 169.698 230.803Z" fill="#FADEA4"/>
<path d="M180.584 227.034C180.135 226.285 180.225 225.447 180.435 224.849C180.589 224.408 180.695 224.373 181.304 224.708C180.984 225.274 180.596 226.549 181.604 227.123C182.864 227.84 184.153 228.38 184.093 228.798C184.033 229.216 183.553 229.517 182.834 229.965C182.114 230.413 181.244 230.867 181.184 231.463C180.789 231.46 180.388 231.456 179.985 231.452C179.955 230.667 182.804 229.156 183.074 229.007C183.343 228.858 183.433 228.798 183.164 228.619C181.292 227.804 180.664 227.221 180.584 227.034Z" fill="#FF611E"/>
<path d="M170.807 226.076C174.694 228.516 178.944 227.731 180.584 227.034C180.664 227.223 181.291 227.806 183.163 228.619C183.433 228.798 183.343 228.858 183.073 229.007C182.803 229.156 179.954 230.667 179.984 231.452C178.382 231.437 176.736 231.411 175.216 231.381C174.988 230.579 173.593 228.791 169.836 228.051C169.922 227.537 170.16 226.918 170.807 226.076Z" fill="#FFB61E"/>
<path d="M195.58 229.785C195.07 229.994 190.392 231.407 186.254 231.46C184.903 231.477 183.109 231.477 181.185 231.462C181.246 230.867 182.115 230.413 182.835 229.965C183.555 229.517 184.034 229.216 184.094 228.798C184.154 228.379 182.865 227.84 181.605 227.123C180.598 226.549 180.986 225.273 181.305 224.708C181.523 224.83 181.804 224.996 182.175 225.207C183.585 226.016 187.153 227.81 189.132 228.499C191.112 229.186 194.351 229.397 194.92 229.427C195.376 229.45 195.55 229.674 195.58 229.785Z" fill="#FADEA4"/>
<path d="M170.448 234.182C169.548 234.182 169.518 233.645 169.428 232.597C169.372 231.936 169.386 231.49 169.473 231.192C170.524 231.264 172.697 231.33 175.216 231.381C176.736 231.411 178.382 231.437 179.984 231.452C180.388 231.456 180.789 231.46 181.184 231.462C183.107 231.477 184.901 231.477 186.252 231.46C190.39 231.407 195.069 229.995 195.579 229.786C196.418 230.353 196.088 231.938 195.908 232.478C192.7 233.824 187.392 234.481 184.513 234.481C181.634 234.481 171.348 234.182 170.448 234.182Z" fill="#FFB61E"/>
<path d="M186.252 231.46C190.39 231.407 195.069 229.995 195.578 229.786C195.655 229.837 195.722 229.897 195.78 229.965C194.553 230.532 190.93 231.765 186.252 231.908C180.404 232.088 178.245 231.849 175.216 231.849C172.793 231.849 170.331 231.71 169.402 231.64C169.414 231.462 169.437 231.315 169.473 231.192C170.524 231.264 172.697 231.33 175.216 231.381C176.736 231.411 178.382 231.437 179.984 231.452C180.388 231.456 180.789 231.46 181.184 231.462C183.107 231.477 184.901 231.477 186.252 231.46Z" fill="#FF611E"/>
<path d="M190.312 152.777C189.205 150.183 175.025 119.624 170.269 111.053C165.587 107.905 143.566 117.033 132.629 118.52C144.333 132.338 168.225 159.71 170.043 163.53C170.792 166.624 167.208 204.258 168.277 221.858C168.277 223.778 182.421 222.959 182.851 219.953C183.065 218.46 189.985 161.883 190.312 159.073C190.64 156.264 191.419 155.371 190.312 152.777Z" fill="#1F2E83"/>
<path d="M190.312 152.777C189.205 150.183 175.025 119.624 170.269 111.053C165.587 107.905 143.566 117.033 132.629 118.52C144.333 132.338 168.225 159.71 170.043 163.53C170.792 166.624 167.208 204.258 168.277 221.858C168.277 223.778 182.421 222.959 182.851 219.953C183.065 218.46 189.985 161.883 190.312 159.073C190.64 156.264 191.419 155.371 190.312 152.777Z" fill="url(#paint25_linear_214_383)"/>
<path d="M190.312 152.777C189.205 150.183 175.025 119.624 170.269 111.053C165.587 107.905 143.566 117.033 132.629 118.52C144.333 132.338 168.225 159.71 170.043 163.53C170.792 166.624 167.208 204.258 168.277 221.858C168.277 223.778 182.421 222.959 182.851 219.953C183.065 218.46 189.985 161.883 190.312 159.073C190.64 156.264 191.419 155.371 190.312 152.777Z" fill="url(#paint26_linear_214_383)"/>
<path d="M190.312 152.777C189.205 150.183 175.025 119.624 170.269 111.053C165.587 107.905 143.566 117.033 132.629 118.52C144.333 132.338 168.225 159.71 170.043 163.53C170.792 166.624 167.208 204.258 168.277 221.858C168.277 223.778 182.421 222.959 182.851 219.953C183.065 218.46 189.985 161.883 190.312 159.073C190.64 156.264 191.419 155.371 190.312 152.777Z" fill="url(#paint27_linear_214_383)"/>
<path fill-rule="evenodd" clip-rule="evenodd" d="M190.61 152.651C189.501 150.053 175.316 119.483 170.552 110.898L169.991 111.208C174.739 119.765 188.915 150.312 190.02 152.902C190.553 154.152 190.625 154.969 190.534 155.81C190.491 156.206 190.412 156.607 190.32 157.075C190.311 157.119 190.303 157.163 190.294 157.208C190.192 157.729 190.08 158.321 189.996 159.036C189.669 161.847 182.75 218.419 182.537 219.908C182.501 220.158 182.314 220.433 181.917 220.717C181.525 220.996 180.97 221.257 180.292 221.485C178.938 221.944 177.156 222.266 175.375 222.434C173.594 222.603 171.836 222.618 170.531 222.475C169.876 222.402 169.355 222.293 169.008 222.155C168.833 222.084 168.723 222.014 168.66 221.954C168.602 221.899 168.6 221.869 168.6 221.858V221.848L168.6 221.839C168.066 213.061 168.694 199.272 169.363 187.272C169.497 184.869 169.632 182.538 169.76 180.334C169.952 177.039 170.127 174.03 170.256 171.49C170.363 169.37 170.437 167.573 170.462 166.209C170.474 165.526 170.474 164.949 170.458 164.491C170.443 164.041 170.413 163.684 170.358 163.455L169.734 163.605C169.772 163.764 169.802 164.062 169.817 164.512C169.832 164.954 169.832 165.52 169.82 166.197C169.796 167.551 169.722 169.339 169.615 171.458C169.487 173.996 169.312 177.001 169.12 180.292C168.992 182.497 168.856 184.829 168.722 187.236C168.054 199.223 167.424 213.047 167.959 221.869C167.962 222.093 168.07 222.278 168.217 222.417C168.362 222.556 168.555 222.663 168.768 222.748C169.196 222.919 169.784 223.036 170.461 223.11C171.822 223.26 173.626 223.243 175.436 223.072C177.244 222.899 179.08 222.573 180.498 222.093C181.206 221.852 181.827 221.568 182.291 221.237C182.751 220.909 183.1 220.499 183.172 219.998C183.386 218.5 190.306 161.919 190.634 159.11C190.714 158.421 190.822 157.848 190.924 157.33C190.933 157.285 190.942 157.239 190.951 157.194C191.041 156.733 191.126 156.303 191.172 155.879C191.276 154.922 191.184 153.995 190.61 152.651Z" fill="#2F24FF"/>
<path d="M170.045 163.53C170.286 164.527 170.077 169.113 169.719 175.461L175.359 159.073C173.944 159.892 170.899 161.93 170.045 163.53Z" fill="url(#paint28_linear_214_383)"/>
<path d="M190.189 159.596C190.241 159.374 190.283 159.199 190.313 159.074C190.703 157.439 190.931 156.428 190.873 155.342L184.066 158.418C184.685 158.799 186.675 159.469 190.189 159.596Z" fill="url(#paint29_linear_214_383)"/>
<path d="M92.4475 165.146C92.2217 165.515 92.313 166.017 92.4571 166.534C93.4092 170.342 93.0303 175.382 92.622 177.946C92.622 177.946 81.9828 176.093 76.7696 176.441C71.5564 176.789 76.2324 168.195 75.4215 166.822L92.4475 165.146Z" fill="#F4B88E"/>
<path d="M76.7697 176.44C71.5563 176.788 76.2325 168.194 75.4216 166.821L79.4295 166.426C79.5298 168.286 79.811 172.894 80.132 176.448C78.8927 176.387 77.7376 176.375 76.7697 176.44Z" fill="#192671"/>
<path d="M72.6643 165.652C72.9658 165.703 73.7761 165.708 74.4953 165.686C74.7834 165.678 75.0806 165.659 75.426 165.706C74.7964 169.475 73.0471 170.92 72.2513 171.171C72.2259 168.658 72.2274 166.49 72.2678 165.439C72.4451 165.484 72.5727 165.555 72.6643 165.652Z" fill="#FADEA4"/>
<path d="M76.7668 176.392C77.5025 175.921 78.3447 175.986 78.9505 176.177C79.3969 176.318 79.4349 176.422 79.1171 177.04C78.5412 176.738 77.2527 176.39 76.7078 177.412C76.0265 178.689 75.5258 179.991 75.1043 179.944C74.683 179.897 74.3686 179.428 73.8973 178.724C73.426 178.02 72.9446 177.166 72.346 177.124C72.337 176.73 72.3284 176.331 72.3203 175.928C73.1067 175.874 74.7057 178.669 74.8637 178.934C75.0218 179.198 75.0844 179.286 75.2561 179.012C76.0149 177.121 76.5793 176.478 76.7668 176.392Z" fill="#FF621E"/>
<path d="M77.4326 166.616C75.1041 170.565 76.0201 174.779 76.7692 176.392C76.5817 176.478 76.0173 177.121 75.2585 179.012C75.0868 179.286 75.0242 179.198 74.8661 178.934C74.7081 178.669 73.1089 175.874 72.3227 175.928C72.2904 174.33 72.2652 172.688 72.25 171.172C73.046 170.92 74.7951 169.475 75.4249 165.707C75.9425 165.777 76.5682 165.995 77.4326 166.616Z" fill="#FFB61E"/>
<path d="M74.4644 191.426C74.2392 190.924 72.6832 186.302 72.5036 182.177C72.445 180.831 72.3915 179.042 72.3477 177.124C72.9462 177.166 73.4276 178.019 73.899 178.724C74.3703 179.428 74.6847 179.897 75.1062 179.944C75.5275 179.991 76.0281 178.689 76.7095 177.412C77.2544 176.389 78.5429 176.738 79.1188 177.039C79.0055 177.26 78.8468 177.546 78.6451 177.922C77.8784 179.352 76.1879 182.964 75.5583 184.958C74.9287 186.953 74.8169 190.189 74.8042 190.757C74.794 191.213 74.5735 191.393 74.4644 191.426Z" fill="#FADEA4"/>
<path d="M69.2979 166.502C69.2707 165.605 69.8094 165.558 70.8558 165.437C71.5158 165.361 71.9632 165.362 72.266 165.439C72.2256 166.49 72.2241 168.658 72.2493 171.171C72.2647 172.687 72.2897 174.33 72.322 175.928C72.3301 176.33 72.3387 176.73 72.3477 177.124C72.3915 179.042 72.445 180.831 72.5038 182.177C72.6834 186.302 74.2392 190.924 74.4644 191.426C73.9204 192.28 72.3216 191.999 71.7767 191.837C70.3308 188.678 69.5106 183.405 69.4236 180.535C69.3366 177.664 69.325 167.399 69.2979 166.502Z" fill="#FFB61E"/>
<path d="M72.5027 182.178C72.6823 186.303 74.2381 190.925 74.4633 191.427C74.4137 191.505 74.3553 191.573 74.2897 191.633C73.683 190.427 72.3385 186.852 72.053 182.192C71.6962 176.366 71.8707 174.206 71.7792 171.186C71.7059 168.77 71.7713 166.311 71.813 165.383C71.9914 165.389 72.1402 165.408 72.2649 165.439C72.2245 166.49 72.223 168.658 72.2482 171.172C72.2636 172.688 72.2886 174.33 72.3209 175.928C72.329 176.331 72.3376 176.73 72.3466 177.125C72.3904 179.043 72.4441 180.831 72.5027 182.178Z" fill="#FF621E"/>
<path d="M85.6872 179.96C97.1284 179.96 137.058 180.529 142.68 179.96C164.543 177.749 162.205 125.653 162.205 108.707C155.353 102.817 136.008 109.702 136.008 109.702C120.856 125.374 132.93 140.142 131.773 160.227C118.239 160.227 90.4986 161.459 85.6872 162.418C82.0512 163.144 80.875 179.96 85.6872 179.96Z" fill="#202F84"/>
<path d="M85.6872 179.96C97.1284 179.96 137.058 180.529 142.68 179.96C164.543 177.749 162.205 125.653 162.205 108.707C155.353 102.817 136.008 109.702 136.008 109.702C120.856 125.374 132.93 140.142 131.773 160.227C118.239 160.227 90.4986 161.459 85.6872 162.418C82.0512 163.144 80.875 179.96 85.6872 179.96Z" fill="url(#paint30_linear_214_383)"/>
<path d="M85.6872 179.96C97.1284 179.96 137.058 180.529 142.68 179.96C164.543 177.749 162.205 125.653 162.205 108.707C155.353 102.817 136.008 109.702 136.008 109.702C120.856 125.374 132.93 140.142 131.773 160.227C118.239 160.227 90.4986 161.459 85.6872 162.418C82.0512 163.144 80.875 179.96 85.6872 179.96Z" fill="url(#paint31_linear_214_383)"/>
<path d="M143.172 170.693C138.787 175.512 101.681 174.747 82.5499 173.827C82.5129 173.246 82.4986 172.647 82.5056 172.044C100.661 172.48 137.762 172.592 140.926 169.552C144.882 165.753 150.354 129.908 139.357 109.299C140.624 109.13 141.909 109.347 143.172 109.299C152.497 125.918 148.89 164.408 143.172 170.693Z" fill="url(#paint32_linear_214_383)"/>
<path d="M134.945 180.186C138.689 180.152 141.474 180.082 142.679 179.96C156.573 178.555 160.693 157.005 161.851 137.133C158.394 159.873 142.474 175.31 134.945 180.186Z" fill="#202F84"/>
<path d="M134.945 180.186C138.689 180.152 141.474 180.082 142.679 179.96C156.573 178.555 160.693 157.005 161.851 137.133C158.394 159.873 142.474 175.31 134.945 180.186Z" fill="url(#paint33_linear_214_383)"/>
<path fill-rule="evenodd" clip-rule="evenodd" d="M131.47 159.907C131.719 155.033 131.192 150.469 130.476 146.115C130.21 144.497 129.917 142.903 129.628 141.332C129.126 138.603 128.636 135.942 128.324 133.348C127.832 129.247 127.776 125.259 128.807 121.303C129.839 117.343 131.955 113.433 135.778 109.479L136.239 109.924C132.486 113.806 130.429 117.62 129.428 121.464C128.425 125.312 128.474 129.211 128.961 133.271C129.271 135.849 129.754 138.472 130.253 141.186C130.543 142.761 130.839 144.366 131.109 146.011C131.843 150.475 132.385 155.19 132.094 160.245L132.077 160.547H131.774C125.013 160.547 114.7 160.854 105.474 161.282C100.862 161.496 96.5232 161.74 93.0381 161.99C89.5444 162.241 86.9297 162.497 85.7505 162.732C85.4126 162.8 85.0587 163.065 84.7093 163.564C84.3634 164.057 84.0499 164.741 83.7822 165.564C83.2471 167.208 82.9128 169.347 82.8401 171.472C82.7672 173.6 82.9575 175.684 83.4518 177.224C83.9556 178.794 84.7152 179.64 85.6876 179.64C88.9051 179.64 94.376 179.685 100.702 179.737C105.626 179.778 111.068 179.822 116.368 179.853C128.497 179.924 139.859 179.924 142.648 179.642C147.756 179.125 151.534 175.814 154.331 170.759C157.131 165.701 158.922 158.938 160.057 151.624L160.692 151.722C159.551 159.064 157.746 165.913 154.893 171.069C152.037 176.229 148.105 179.733 142.713 180.278C139.88 180.565 128.466 180.564 116.364 180.493C111.059 180.462 105.615 180.418 100.691 180.377C94.3688 180.325 88.9032 180.28 85.6876 180.28C84.2539 180.28 83.356 179.025 82.8406 177.419C82.3155 175.783 82.1248 173.617 82.199 171.45C82.2732 169.281 82.6141 167.08 83.1718 165.366C83.4505 164.511 83.7877 163.762 84.1834 163.197C84.5754 162.637 85.0536 162.218 85.6248 162.105C86.8512 161.86 89.5084 161.602 92.9922 161.352C96.4845 161.101 100.829 160.857 105.445 160.643C114.538 160.221 124.693 159.916 131.47 159.907Z" fill="#00D1FF"/>
<path d="M170.395 29.9229C170.395 29.9229 170.439 32.4197 170.763 33.602C172.174 38.7429 176.128 41.3684 180.216 42.0174L178.363 55.2312L166.07 49.0448C167.377 43.1013 169.088 35.8663 170.395 29.9229Z" fill="#F4B88E"/>
<path d="M170.395 29.9229C170.395 29.9229 170.439 32.4197 170.763 33.602C172.174 38.7429 176.128 41.3684 180.216 42.0174L178.363 55.2312L166.07 49.0448C167.377 43.1013 169.088 35.8663 170.395 29.9229Z" fill="url(#paint34_linear_214_383)"/>
<path d="M170.395 29.9229C170.395 29.9229 170.439 32.4197 170.763 33.602C172.174 38.7429 176.128 41.3684 180.216 42.0174L178.363 55.2312L166.07 49.0448C167.377 43.1013 169.088 35.8663 170.395 29.9229Z" fill="url(#paint35_linear_214_383)"/>
<path d="M183.23 41.3962C186.262 37.8899 189.655 18.634 189.655 18.634L169.934 17.0024C170.261 24.1175 168.084 30.2293 172.001 36.9118C174.908 41.2215 180.199 44.9026 183.23 41.3962Z" fill="#F4B88E"/>
<path d="M183.23 41.3962C186.262 37.8899 189.655 18.634 189.655 18.634L169.934 17.0024C170.261 24.1175 168.084 30.2293 172.001 36.9118C174.908 41.2215 180.199 44.9026 183.23 41.3962Z" fill="url(#paint36_linear_214_383)"/>
<path d="M183.23 41.3962C186.262 37.8899 189.655 18.634 189.655 18.634L169.934 17.0024C170.261 24.1175 168.084 30.2293 172.001 36.9118C174.908 41.2215 180.199 44.9026 183.23 41.3962Z" fill="url(#paint37_linear_214_383)"/>
<path d="M184.59 38.5433C186.889 32.1977 189.655 18.6342 189.655 18.6342L186.132 18.3428C187.403 23.5304 185.633 33.9713 184.59 38.5433Z" fill="url(#paint38_linear_214_383)"/>
<path d="M172.864 29.0567C175.132 25.878 176.032 23.3895 175.43 21.3221C178.366 23.0505 186.452 29.1606 190.514 22.7644C194.577 16.3682 185.425 14.013 182.121 14.326C177.869 10.2901 173.534 12.8774 173.204 14.3784C171.788 14.0628 165.098 16.878 165.006 21.5693C164.91 26.4239 169.128 33.9522 168.472 38.4794C169.678 35.9089 169.864 31.8966 170.547 30.5364C168.014 27.1627 172.389 24.4491 172.864 29.0567Z" fill="url(#paint39_linear_214_383)"/>
<path d="M172.864 29.0567C175.132 25.878 176.032 23.3895 175.43 21.3221C178.366 23.0505 186.452 29.1606 190.514 22.7644C194.577 16.3682 185.425 14.013 182.121 14.326C177.869 10.2901 173.534 12.8774 173.204 14.3784C171.788 14.0628 165.098 16.878 165.006 21.5693C164.91 26.4239 169.128 33.9522 168.472 38.4794C169.678 35.9089 169.864 31.8966 170.547 30.5364C168.014 27.1627 172.389 24.4491 172.864 29.0567Z" fill="url(#paint40_linear_214_383)"/>
<path d="M175.738 21.5176C176.076 21.6812 176.496 21.9312 176.981 22.2295C182.202 25.134 187.055 26.7001 189.731 23.8073C185.838 28.0151 180.083 24.1371 176.981 22.2295C176.569 21.9999 176.154 21.7623 175.738 21.5176Z" fill="url(#paint41_linear_214_383)"/>
<path d="M176.164 21.6099C176.841 21.9371 177.878 22.53 179.12 23.1245C183.789 25.1621 188.204 25.3724 190.59 22.7924C187.308 26.3414 182.469 24.7273 179.12 23.1245C178.14 22.697 177.15 22.1893 176.164 21.6099Z" fill="url(#paint42_linear_214_383)"/>
<path d="M175.43 21.322C183.717 24.6232 188.939 23.6591 190.514 22.7644C191.22 21.6519 191.527 20.6618 191.535 19.7866C190.77 21.306 186.478 23.7402 175.43 21.322Z" fill="url(#paint43_linear_214_383)"/>
<path fill-rule="evenodd" clip-rule="evenodd" d="M174.578 29.8013C174.578 30.3147 174.234 31.3618 173.081 31.6914C170.971 32.2941 169.101 33.1361 167.728 32.344C166.354 31.5519 164.989 30.4212 163.532 27.7473C162.076 25.0734 161.004 23.6421 161.078 22.6211C161.682 23.0503 169.622 29.0507 174.578 29.8013ZM166.999 28.6134C167.703 28.8846 171.092 30.5742 169.844 31.0727C168.952 31.4286 168.313 31.9194 167.91 31.3618C167.6 30.9338 165.717 27.9448 166.999 28.6134Z" fill="#0C55DE"/>
<path fill-rule="evenodd" clip-rule="evenodd" d="M174.578 29.8013C174.578 30.3147 174.234 31.3618 173.081 31.6914C170.971 32.2941 169.101 33.1361 167.728 32.344C166.354 31.5519 164.989 30.4212 163.532 27.7473C162.076 25.0734 161.004 23.6421 161.078 22.6211C161.682 23.0503 169.622 29.0507 174.578 29.8013ZM166.999 28.6134C167.703 28.8846 171.092 30.5742 169.844 31.0727C168.952 31.4286 168.313 31.9194 167.91 31.3618C167.6 30.9338 165.717 27.9448 166.999 28.6134Z" fill="url(#paint44_linear_214_383)"/>
<path d="M161.074 22.6962C161.074 22.5046 161.173 22.066 161.223 21.8708C162.191 21.2929 165.385 24.4701 167.437 25.7575C169.489 27.0448 173.253 26.021 174.71 25.3439C176.166 24.667 180.179 24.7408 182.975 24.0556C185.771 23.3701 185.656 23.56 190.223 22.5031C186.401 26.853 183.803 26.8368 180.17 26.5153C176.538 26.1938 175 28.5793 174.578 29.8008C166.784 28.7947 162.373 24.3796 161.786 23.7524C161.198 23.1252 161.074 22.9353 161.074 22.6962Z" fill="#0C55DE"/>
<path d="M161.074 22.6962C161.074 22.5046 161.173 22.066 161.223 21.8708C162.191 21.2929 165.385 24.4701 167.437 25.7575C169.489 27.0448 173.253 26.021 174.71 25.3439C176.166 24.667 180.179 24.7408 182.975 24.0556C185.771 23.3701 185.656 23.56 190.223 22.5031C186.401 26.853 183.803 26.8368 180.17 26.5153C176.538 26.1938 175 28.5793 174.578 29.8008C166.784 28.7947 162.373 24.3796 161.786 23.7524C161.198 23.1252 161.074 22.9353 161.074 22.6962Z" fill="url(#paint45_linear_214_383)"/>
<path d="M193.473 18.5241C192.994 19.9602 190.841 23.232 186.069 24.8306C183.794 25.7387 181.419 25.4418 180.476 25.2438C179.533 25.0458 177.771 24.361 174.809 27.0272C174.403 27.3325 174.13 27.7289 174.006 28.0178C173.882 28.3066 173.675 28.3892 173.187 28.2488C172.699 28.1086 169.025 27.3248 165.194 25.072C162.721 23.5704 161.86 22.6213 161.223 21.8703C161.52 20.4589 163.572 13.8476 172.49 10.4792C181.409 7.11085 191.446 11.9133 193.473 18.5241Z" fill="#114DBD"/>
<path d="M193.473 18.5241C192.994 19.9602 190.841 23.232 186.069 24.8306C183.794 25.7387 181.419 25.4418 180.476 25.2438C179.533 25.0458 177.771 24.361 174.809 27.0272C174.403 27.3325 174.13 27.7289 174.006 28.0178C173.882 28.3066 173.675 28.3892 173.187 28.2488C172.699 28.1086 169.025 27.3248 165.194 25.072C162.721 23.5704 161.86 22.6213 161.223 21.8703C161.52 20.4589 163.572 13.8476 172.49 10.4792C181.409 7.11085 191.446 11.9133 193.473 18.5241Z" fill="url(#paint46_linear_214_383)"/>
<path d="M170.927 18.4282C168.983 18.9649 166.676 20.3909 165.74 21.1689C164.539 22.1678 165.521 22.3617 167.302 22.1921C168.177 21.342 170.75 19.5903 174.047 19.3852C174.7 18.2627 172.872 17.8915 170.927 18.4282Z" fill="#0A2F74"/>
<path d="M170.705 13.6825C172.564 12.8636 172.313 14.062 171.954 14.7636C171.102 14.9123 168.761 15.9905 166.213 19.1138C164.869 19.7118 164.243 19.7083 164.971 18.6518C165.699 17.5952 168.38 14.7062 170.705 13.6825Z" fill="#0A2F74"/>
<path d="M180.788 13.1037C183.32 13.4336 183.097 15.1504 182.783 15.5631C181.267 14.3682 177.915 15.5113 176.428 16.2323C172.292 15.2506 178.256 12.7739 180.788 13.1037Z" fill="#0A2F74"/>
<path d="M184.059 12.9961C182.578 11.816 185.796 12.3026 186.839 12.7482C187.647 13.0935 189.1 14.193 188.196 14.4557C187.236 13.4979 185.369 13.35 184.555 13.3958C184.363 13.2618 184.195 13.1264 184.059 12.9961Z" fill="#0A2F74"/>
<path d="M188.984 17.7327C190.928 18.6322 189.828 19.8373 189.166 19.8621C188.074 19.9111 186.855 19.4692 185.91 18.9594C186.648 19.3511 188.315 19.9431 189.083 19.177C189.85 18.411 188.874 17.7223 188.29 17.4736C188.53 17.5449 188.763 17.6307 188.984 17.7327Z" fill="#0A2F74"/>
<path d="M183.843 20.5971C186.4 20.3905 187.103 22.5032 183.496 23.5601C180.104 24.554 176.345 24.8471 174.492 24.3296C177.924 24.6355 181.825 23.7007 183.86 22.5532C185.488 21.6352 184.527 20.8667 183.843 20.5971Z" fill="#0A2F74"/>
<path d="M171.303 25.4601C169.768 25.8432 168.159 25.2789 167.547 24.9489C171.816 26.0213 171.394 23.8921 171.162 23.5537C172.569 23.9497 172.056 25.3033 171.303 25.4601Z" fill="#0A2F74"/>
<path fill-rule="evenodd" clip-rule="evenodd" d="M167.302 22.1922C168.237 21.3338 170.895 19.5705 174.046 19.3853C173.393 20.5079 170.894 21.6967 168.445 22.0519C168.04 22.1105 167.655 22.1585 167.302 22.1922ZM171.952 14.7636C171.076 15.9274 169.057 18.0735 166.211 19.1138C167.121 17.9527 169.543 15.4571 171.952 14.7636ZM176.429 16.2322C177.659 16.6668 180.652 17.1413 182.783 15.563C181.3 14.5463 177.929 15.5855 176.429 16.2322ZM187.97 14.4977C188.057 14.4881 188.131 14.4739 188.193 14.4557C187.78 13.9824 186.472 13.1079 184.553 13.3957C185.453 14.0248 186.872 14.6203 187.97 14.4977ZM189.104 19.1196C188.588 19.9384 186.758 19.3541 185.907 18.9597C185.098 18.5231 184.491 18.0368 184.339 17.7665C184.133 17.2543 186.412 16.917 188.287 17.4739C188.815 17.7316 189.589 18.3514 189.104 19.1196ZM178.076 21.6546C175.817 22.3646 172.458 23.5618 174.163 24.2219C174.264 24.2611 174.374 24.2972 174.491 24.33C177.832 24.768 181.791 23.6186 183.776 22.5867C185.365 21.7611 184.482 20.9166 183.842 20.5975C181.575 20.7807 180.271 21.1067 178.694 21.5008H178.694C178.493 21.5509 178.288 21.6024 178.076 21.6546Z" fill="#0C3A8E"/>
<path d="M166.832 23.8925C167.709 23.4466 168.884 23.2651 169.918 23.331C170.195 23.3316 170.717 23.3933 171.17 23.5501C171.438 23.9339 171.692 24.8032 170.771 25.0972C169.579 25.4769 168.334 25.2442 167.343 24.9274C166.458 24.5376 166.418 24.1031 166.832 23.8925Z" fill="#0C3A8E"/>
<path d="M139.19 67.891C137.795 74.5796 127.793 124.003 128.22 126.99C129.397 135.203 171.175 122.813 172.621 114.466C168.995 84.7221 179.124 74.7317 179.124 49.7186L167.312 43.5249C167.312 43.5249 152.756 48.2261 147.196 53.7728C141.636 59.3195 139.942 64.2869 139.19 67.891Z" fill="#FEAC00"/>
<path d="M139.19 67.891C137.795 74.5796 127.793 124.003 128.22 126.99C129.397 135.203 171.175 122.813 172.621 114.466C168.995 84.7221 179.124 74.7317 179.124 49.7186L167.312 43.5249C167.312 43.5249 152.756 48.2261 147.196 53.7728C141.636 59.3195 139.942 64.2869 139.19 67.891Z" fill="url(#paint47_linear_214_383)"/>
<path d="M139.19 67.891C137.795 74.5796 127.793 124.003 128.22 126.99C129.397 135.203 171.175 122.813 172.621 114.466C168.995 84.7221 179.124 74.7317 179.124 49.7186L167.312 43.5249C167.312 43.5249 152.756 48.2261 147.196 53.7728C141.636 59.3195 139.942 64.2869 139.19 67.891Z" fill="url(#paint48_linear_214_383)"/>
<path fill-rule="evenodd" clip-rule="evenodd" d="M167.342 43.1792L179.445 49.5254V49.7187C179.445 60.4155 177.597 68.3822 175.766 76.2766C175.449 77.6447 175.132 79.0105 174.826 80.3879C172.751 89.7089 171.132 99.6039 172.939 114.428L172.945 114.475L172.937 114.521C172.737 115.675 171.856 116.843 170.558 117.979C169.249 119.122 167.471 120.272 165.39 121.382C161.227 123.602 155.81 125.684 150.409 127.246C145.01 128.807 139.603 129.854 135.462 129.992C133.395 130.061 131.615 129.905 130.303 129.455C128.988 129.004 128.074 128.231 127.903 127.035C127.87 126.805 127.889 126.399 127.939 125.877C127.99 125.343 128.077 124.65 128.195 123.822C128.43 122.167 128.792 119.962 129.242 117.382C130.142 112.221 131.396 105.551 132.707 98.7683C135.329 85.2016 138.179 71.1719 138.876 67.826C139.638 64.1729 141.357 59.1455 146.969 53.5468C149.797 50.7259 154.879 48.1437 159.212 46.2753C161.387 45.3379 163.386 44.5746 164.842 44.0458C165.57 43.7812 166.162 43.5751 166.573 43.4352C166.778 43.3652 166.938 43.3117 167.047 43.2756C167.101 43.2577 167.143 43.2441 167.171 43.2349L167.203 43.2244L167.214 43.2208C167.214 43.2208 167.214 43.2208 167.313 43.5252L167.214 43.2208L167.342 43.1792ZM167.284 43.8715C167.273 43.8751 167.261 43.8789 167.249 43.883C167.142 43.9186 166.984 43.9715 166.78 44.0409C166.373 44.1797 165.785 44.3843 165.061 44.6471C163.614 45.173 161.627 45.9316 159.467 46.8628C155.132 48.7318 150.155 51.2737 147.423 53.9993C141.915 59.4941 140.246 64.4016 139.505 67.9564C138.807 71.2991 135.958 85.3256 133.337 98.8895C132.027 105.672 130.773 112.336 129.874 117.491C129.425 120.069 129.064 122.267 128.83 123.912C128.712 124.735 128.627 125.417 128.577 125.938C128.527 126.472 128.518 126.802 128.538 126.945C128.661 127.803 129.31 128.438 130.511 128.85C131.714 129.262 133.403 129.42 135.44 129.352C139.508 129.216 144.858 128.184 150.23 126.631C155.602 125.078 160.974 123.011 165.088 120.817C167.145 119.72 168.877 118.597 170.135 117.497C171.382 116.407 172.119 115.378 172.297 114.457C170.487 99.5636 172.118 89.6027 174.199 80.2493C174.508 78.8645 174.825 77.4941 175.143 76.1234C176.962 68.2794 178.781 60.4334 178.803 49.912L167.284 43.8715Z" fill="#F54901" fill-opacity="0.57"/>
<g opacity="0.5">
<path d="M104.574 86.8595C106.787 65.3809 128.06 37.4719 130.55 32.8838C139.551 33.5507 159.752 41.3209 166.529 43.7574C161.174 45.883 145.488 63.7134 138.314 72.363L133.39 96.8441C121.131 96.8441 113.97 89.1586 104.574 86.8595Z" fill="#F4E9A6"/>
<path d="M104.574 86.8595C106.787 65.3809 128.06 37.4719 130.55 32.8838C139.551 33.5507 159.752 41.3209 166.529 43.7574C161.174 45.883 145.488 63.7134 138.314 72.363L133.39 96.8441C121.131 96.8441 113.97 89.1586 104.574 86.8595Z" fill="url(#paint49_linear_214_383)"/>
</g>
<path fill-rule="evenodd" clip-rule="evenodd" d="M130.355 24.7359C130.407 24.9049 130.313 25.0841 130.143 25.1366C129.559 25.3173 128.317 26.0673 126.548 27.7273C124.792 29.3757 122.541 31.8969 119.938 35.5754C119.836 35.7198 119.636 35.7542 119.491 35.6522C119.347 35.5504 119.312 35.3508 119.414 35.2063C122.037 31.4997 124.315 28.9444 126.109 27.2609C127.891 25.5891 129.222 24.7517 129.953 24.5252C130.122 24.4729 130.302 24.5672 130.355 24.7359Z" fill="#F7D162"/>
<path d="M130.551 32.8838C139.552 33.5504 159.768 41.3441 166.544 43.7808C155.264 31.2153 145.983 29.0787 139.39 27.4702C134.119 29.6946 130.551 32.8838 130.551 32.8838Z" fill="#F4E9A6"/>
<path d="M104.576 86.8583C108.629 62.5848 130.748 33.8953 130.748 33.8953C130.748 33.8953 136.293 28.0756 143.357 28.4967L130.048 24.5112C118.633 43.0273 104.057 69.7424 104.576 86.8583Z" fill="#F4E9A6"/>
<path d="M117.244 72.6228C118.536 73.3415 119.408 74.2117 119.859 75.2335C120.309 76.2473 120.256 77.2517 119.699 78.2467C119.227 79.0923 118.55 79.6116 117.67 79.8044L121.624 82.0037L120.375 84.2386L108.762 77.779L109.92 75.7065L110.785 76.0862C110.437 75.1828 110.506 74.2953 110.993 73.4241C111.569 72.393 112.4 71.804 113.485 71.6572C114.569 71.5105 115.784 71.8108 117.127 72.5581L117.244 72.6228ZM115.831 74.7672C115.051 74.3331 114.371 74.1374 113.792 74.1801C113.215 74.2177 112.78 74.4993 112.486 75.0251C112.094 75.7263 112.093 76.3578 112.484 76.9197L115.918 78.8299C116.624 78.8643 117.173 78.5308 117.565 77.8298C118.161 76.7625 117.584 75.7417 115.831 74.7672Z" fill="#FF3B00"/>
<path d="M124.21 69.8156L122.956 72.0581L114.568 67.3925L115.822 65.15L124.21 69.8156ZM112.324 66.3167C111.988 66.1298 111.774 65.8653 111.681 65.5229C111.59 65.1752 111.653 64.808 111.869 64.4214C112.083 64.04 112.361 63.7962 112.705 63.6899C113.049 63.5839 113.389 63.6242 113.725 63.8111C114.066 64.001 114.28 64.2721 114.367 64.6248C114.458 64.9725 114.398 65.3343 114.187 65.7106C113.977 66.0872 113.698 66.3308 113.352 66.4421C113.008 66.5482 112.665 66.5064 112.324 66.3167Z" fill="#FF3B00"/>
<path d="M125.624 63.0491L127.91 58.9582L129.717 59.9628L125.835 66.9072L124.47 66.1484L121.461 59.3144L119.326 63.1346L117.512 62.1257L121.26 55.4209L122.585 56.1584L125.624 63.0491Z" fill="#FF3B00"/>
<path d="M130.881 53.6453L133.168 49.5544L134.974 50.559L131.093 57.5034L129.728 56.7446L126.719 49.9106L124.584 53.7308L122.77 52.7217L126.517 46.0171L127.843 46.7544L130.881 53.6453Z" fill="#FF3B00"/>
<path d="M139.216 42.9639C138.957 42.955 138.664 42.8903 138.339 42.77C138.641 43.6476 138.55 44.5195 138.066 45.3857C137.607 46.2053 136.989 46.7536 136.211 47.0305C135.436 47.3023 134.687 47.2368 133.963 46.8344C133.074 46.3399 132.575 45.6331 132.465 44.7139C132.359 43.7895 132.65 42.7047 133.34 41.4593L133.915 40.4308L133.434 40.1635C133.046 39.9478 132.68 39.8759 132.335 39.9476C131.993 40.0142 131.702 40.2614 131.463 40.6894C131.253 41.0657 131.178 41.4123 131.237 41.7296C131.3 42.0415 131.489 42.2851 131.804 42.4604L130.555 44.6953C130.069 44.4252 129.703 44.0257 129.457 43.4966C129.211 42.9675 129.124 42.3651 129.197 41.6892C129.265 41.0106 129.489 40.331 129.869 39.6504C130.445 38.6194 131.163 37.9474 132.022 37.6346C132.879 37.3138 133.778 37.4149 134.718 37.938L138.354 39.9604C139.153 40.3979 139.817 40.6219 140.346 40.6326L140.478 40.7058L139.216 42.9639ZM136.625 43.9455C136.809 43.6156 136.907 43.2711 136.918 42.9123C136.924 42.5505 136.84 42.2337 136.666 41.9615L135.225 41.1595L134.758 41.9947C134.132 43.1135 134.187 43.9246 134.922 44.4278L135.05 44.5089C135.329 44.6642 135.613 44.694 135.904 44.5989C136.194 44.5035 136.434 44.2857 136.625 43.9455Z" fill="#FF3B00"/>
<path d="M172.571 33.2637L169.613 33.4717C170.37 38.9405 180.437 41.3021 180.437 46.4344C180.437 48.2232 180.5 50.9676 179.993 52.8583H181.65C181.65 52.8583 182.797 46.69 182.454 45.1773C182.454 41.6387 173.381 37.3117 172.571 33.2637Z" fill="#002B89"/>
<path d="M182.939 43.2155L179.503 43.7061C179.196 43.7499 179.032 44.0901 179.19 44.3562L180.409 46.4178C180.498 46.5676 180.668 46.6501 180.841 46.6273L182.492 46.4099C182.67 46.3865 182.815 46.2561 182.858 46.0818L183.424 43.7469C183.496 43.4486 183.244 43.172 182.939 43.2155Z" fill="#114DBD"/>
<path d="M169.046 33.1074C169.004 32.6545 168.964 32.1109 168.949 31.8957C169.038 31.9042 169.254 31.9518 169.414 32.074C169.518 32.9391 169.611 33.0818 169.823 33.1023C170.036 33.1225 171.397 33.1735 172.079 33.0521C172.624 32.9551 172.563 32.1992 172.464 31.8334L173.042 31.6753L173.189 32.6513C173.27 33.1936 173.054 33.4935 172.776 33.6004C172.497 33.7071 170.758 33.9671 170.036 33.9511C169.314 33.9349 169.098 33.6736 169.046 33.1074Z" fill="#114DBD"/>
<path fill-rule="evenodd" clip-rule="evenodd" d="M179.607 51.3317C179.746 51.7283 179.8 52.4308 179.572 53.0386C179.461 53.337 179.35 53.5011 179.274 53.615C179.195 53.7327 179.152 53.7967 179.181 53.9002C179.238 54.1035 179.365 54.335 179.882 54.3448C180.4 54.3548 181.472 54.5298 181.668 54.5895C181.864 54.6492 182.445 54.5046 182.306 54.108C182.167 53.7114 182.029 53.0153 182.188 52.4792C182.346 51.9433 182.423 51.8543 182.575 51.6762C182.728 51.4981 182.796 51.0855 182.135 50.937C181.473 50.7885 180.211 50.6366 179.949 50.6902C179.686 50.7435 179.416 50.9142 179.607 51.3317ZM180.281 51.0298C180.128 51.0104 179.988 51.1183 179.969 51.2707C179.95 51.423 180.058 51.5621 180.211 51.5815L181.896 51.7942C182.049 51.8134 182.188 51.7056 182.207 51.5533C182.227 51.401 182.119 51.2619 181.966 51.2425L180.281 51.0298Z" fill="#114DBD"/>
<path d="M103.998 100.592C104.783 99.6221 112.078 93.0017 115.626 89.8126L108.332 80.7007C103.545 86.9526 93.4572 100.553 91.4022 104.938C88.8336 110.42 89.0859 121.538 98.057 114.366C107.028 107.193 100.814 104.529 103.998 100.592Z" fill="#F4B88E"/>
<path d="M103.998 100.592C104.783 99.6221 112.078 93.0017 115.626 89.8126L108.332 80.7007C103.545 86.9526 93.4572 100.553 91.4022 104.938C88.8336 110.42 89.0859 121.538 98.057 114.366C107.028 107.193 100.814 104.529 103.998 100.592Z" fill="url(#paint50_linear_214_383)"/>
<path d="M103.998 100.592C104.783 99.6221 112.078 93.0017 115.626 89.8126L108.332 80.7007C103.545 86.9526 93.4572 100.553 91.4022 104.938C88.8336 110.42 89.0859 121.538 98.057 114.366C107.028 107.193 100.814 104.529 103.998 100.592Z" fill="url(#paint51_linear_214_383)"/>
<path d="M169.568 51.9462C166.699 45.5279 162.347 44.762 157.342 45.7149C145.284 48.0111 131.468 52.4546 122.298 60.9442C114.553 68.1572 103.078 83.9509 97.3763 93.1144C95.3988 96.2929 106.265 100.971 107.866 99.2597C109.467 97.5479 123.699 79.2943 132.409 74.4401C141.916 69.1419 177.396 69.46 169.568 51.9462Z" fill="#FEAC00"/>
<path d="M169.568 51.9462C166.699 45.5279 162.347 44.762 157.342 45.7149C145.284 48.0111 131.468 52.4546 122.298 60.9442C114.553 68.1572 103.078 83.9509 97.3763 93.1144C95.3988 96.2929 106.265 100.971 107.866 99.2597C109.467 97.5479 123.699 79.2943 132.409 74.4401C141.916 69.1419 177.396 69.46 169.568 51.9462Z" fill="url(#paint52_linear_214_383)"/>
<path d="M169.568 51.9462C166.699 45.5279 162.347 44.762 157.342 45.7149C145.284 48.0111 131.468 52.4546 122.298 60.9442C114.553 68.1572 103.078 83.9509 97.3763 93.1144C95.3988 96.2929 106.265 100.971 107.866 99.2597C109.467 97.5479 123.699 79.2943 132.409 74.4401C141.916 69.1419 177.396 69.46 169.568 51.9462Z" fill="url(#paint53_linear_214_383)"/>
<path d="M169.568 51.9462C166.699 45.5279 162.347 44.762 157.342 45.7149C145.284 48.0111 131.468 52.4546 122.298 60.9442C114.553 68.1572 103.078 83.9509 97.3763 93.1144C95.3988 96.2929 106.265 100.971 107.866 99.2597C109.467 97.5479 123.699 79.2943 132.409 74.4401C141.916 69.1419 177.396 69.46 169.568 51.9462Z" fill="url(#paint54_linear_214_383)"/>
<path fill-rule="evenodd" clip-rule="evenodd" d="M157.302 45.5053C145.232 47.8035 131.368 52.2564 122.153 60.7876L122.152 60.7881C114.386 68.0205 102.899 83.8334 97.1946 93.0018C96.6225 93.9213 97.0113 94.9176 97.7962 95.798C98.5868 96.685 99.8362 97.5288 101.182 98.211C102.531 98.8945 103.995 99.4255 105.231 99.6775C105.847 99.8033 106.416 99.8616 106.889 99.8302C107.354 99.7993 107.766 99.6787 108.022 99.405C108.289 99.1198 108.899 98.3847 109.766 97.3395C110.217 96.7964 110.738 96.1696 111.315 95.4786C113.01 93.4518 115.209 90.8602 117.63 88.1707C122.481 82.783 128.194 77.0334 132.513 74.6262C134.856 73.3203 138.822 72.3524 143.372 71.3615C144.133 71.196 144.909 71.0298 145.696 70.8612C149.6 70.0256 153.764 69.1343 157.552 67.978C162.096 66.5905 166.142 64.8098 168.557 62.2507C169.769 60.9662 170.574 59.4823 170.82 57.7538C171.067 56.0271 170.754 54.0755 169.763 51.8594C168.313 48.6153 166.474 46.771 164.339 45.8699C162.21 44.9713 159.822 45.0255 157.302 45.5053ZM122.444 61.1002C131.569 52.6526 145.335 48.2185 157.382 45.9245C159.867 45.4513 162.157 45.4121 164.173 46.2628C166.182 47.1111 167.954 48.8589 169.373 52.0331C170.339 54.1952 170.629 56.0649 170.397 57.6937C170.165 59.321 169.407 60.7268 168.246 61.9582C165.912 64.4307 161.962 66.1854 157.426 67.5699C153.658 68.7204 149.516 69.6071 145.612 70.4429C144.823 70.6116 144.045 70.7783 143.281 70.9447C138.749 71.9315 134.715 72.9105 132.305 74.2537C127.914 76.7008 122.156 82.5052 117.312 87.8857C114.886 90.5805 112.683 93.1766 110.987 95.2054C110.398 95.91 109.871 96.5447 109.418 97.0908C108.562 98.1223 107.967 98.838 107.709 99.114C107.565 99.2683 107.288 99.376 106.86 99.4046C106.44 99.4326 105.912 99.3811 105.316 99.2595C104.126 99.0166 102.697 98.5001 101.376 97.8306C100.053 97.1599 98.8561 96.345 98.1157 95.5145C97.3693 94.6771 97.1411 93.8968 97.558 93.2269C103.256 84.0683 114.72 68.2938 122.444 61.1002Z" fill="#FF8A00"/>
<path d="M107.866 99.259C106.265 100.971 95.3988 96.2922 97.3763 93.114C97.7245 92.5542 98.0945 91.9696 98.4837 91.3638C99.0027 93.0747 101.765 96.8641 108.66 98.3353C108.289 98.778 108.019 99.0948 107.866 99.259Z" fill="#FF3958"/>
<path d="M107.866 99.259C106.265 100.971 95.3988 96.2922 97.3763 93.114C97.7245 92.5542 98.0945 91.9696 98.4837 91.3638C99.0027 93.0747 101.765 96.8641 108.66 98.3353C108.289 98.778 108.019 99.0948 107.866 99.259Z" fill="#F54901"/>
<path d="M162.408 45.3006C163.475 44.8782 165.15 44.1287 167.095 43.5967C180.671 65.1628 164.41 88.9083 133.363 96.8295L133.472 96.4453C153.905 89.8548 177.622 67.3368 162.408 45.3006Z" fill="#FDF8D2"/>
<path fill-rule="evenodd" clip-rule="evenodd" d="M93.3283 253.156C66.2676 248.719 58.8002 233.263 58.4648 226.046L58.6785 226.037C59.0083 233.133 66.3816 248.52 93.3632 252.947L93.3283 253.156Z" fill="#FFDDC3"/>
<path fill-rule="evenodd" clip-rule="evenodd" d="M71.9151 251.503C45.1697 245.455 38.6443 229.581 38.7433 222.357L38.9571 222.36C38.8598 229.464 45.2955 245.265 71.9624 251.296L71.9151 251.503Z" fill="#FFDDC3"/>
<defs>
<linearGradient id="paint0_linear_214_383" x1="48.4057" y1="174.688" x2="280.555" y2="63.4754" gradientUnits="userSpaceOnUse">
<stop stop-color="#FFF2E2" stop-opacity="0.1"/>
<stop offset="1" stop-color="#FFCC8B" stop-opacity="0.03"/>
</linearGradient>
<linearGradient id="paint1_linear_214_383" x1="183.478" y1="85.0146" x2="179.35" y2="90.6296" gradientUnits="userSpaceOnUse">
<stop stop-color="#F37A09"/>
<stop offset="1" stop-color="#FF9201" stop-opacity="0"/>
</linearGradient>
<linearGradient id="paint2_linear_214_383" x1="238.089" y1="225.165" x2="238.089" y2="252.772" gradientUnits="userSpaceOnUse">
<stop stop-color="#0007FF"/>
<stop offset="1" stop-color="#FF7A00"/>
</linearGradient>
<linearGradient id="paint3_linear_214_383" x1="238.089" y1="225.304" x2="238.089" y2="252.911" gradientUnits="userSpaceOnUse">
<stop stop-color="#FEE201"/>
<stop offset="1" stop-color="#FFC700"/>
</linearGradient>
<linearGradient id="paint4_linear_214_383" x1="214.226" y1="223.755" x2="235.742" y2="194.995" gradientUnits="userSpaceOnUse">
<stop stop-color="#8BC151"/>
<stop offset="1" stop-color="#468701"/>
</linearGradient>
<linearGradient id="paint5_linear_214_383" x1="106.646" y1="224.702" x2="106.646" y2="252.309" gradientUnits="userSpaceOnUse">
<stop stop-color="#0007FF"/>
<stop offset="1" stop-color="#FF7A00"/>
</linearGradient>
<linearGradient id="paint6_linear_214_383" x1="106.646" y1="224.838" x2="106.646" y2="252.446" gradientUnits="userSpaceOnUse">
<stop stop-color="#FEE201"/>
<stop offset="1" stop-color="#FFC700"/>
</linearGradient>
<linearGradient id="paint7_linear_214_383" x1="200.73" y1="245.881" x2="124.291" y2="246.934" gradientUnits="userSpaceOnUse">
<stop stop-color="#2B2699"/>
<stop offset="1" stop-color="#0D0861"/>
</linearGradient>
<linearGradient id="paint8_linear_214_383" x1="181.46" y1="230.063" x2="119.361" y2="236.595" gradientUnits="userSpaceOnUse">
<stop stop-color="#8BC151"/>
<stop offset="1" stop-color="#6DA234"/>
</linearGradient>
<linearGradient id="paint9_linear_214_383" x1="145.149" y1="240.401" x2="149.201" y2="241.556" gradientUnits="userSpaceOnUse">
<stop stop-color="#1E198C"/>
<stop offset="1" stop-color="#2B2699" stop-opacity="0"/>
</linearGradient>
<linearGradient id="paint10_linear_214_383" x1="188.871" y1="235.087" x2="192.916" y2="236.25" gradientUnits="userSpaceOnUse">
<stop stop-color="#3931DC"/>
<stop offset="1" stop-color="#554EDA" stop-opacity="0"/>
</linearGradient>
<linearGradient id="paint11_linear_214_383" x1="235.414" y1="216.352" x2="235.276" y2="220.505" gradientUnits="userSpaceOnUse">
<stop stop-color="#7AB33D"/>
<stop offset="1" stop-color="#77B03A" stop-opacity="0"/>
</linearGradient>
<linearGradient id="paint12_linear_214_383" x1="140.449" y1="240.401" x2="144.501" y2="241.556" gradientUnits="userSpaceOnUse">
<stop stop-color="#1E198C"/>
<stop offset="1" stop-color="#2B2699" stop-opacity="0"/>
</linearGradient>
<linearGradient id="paint13_linear_214_383" x1="184.172" y1="235.087" x2="188.217" y2="236.25" gradientUnits="userSpaceOnUse">
<stop stop-color="#3931DC"/>
<stop offset="1" stop-color="#554EDA" stop-opacity="0"/>
</linearGradient>
<linearGradient id="paint14_linear_214_383" x1="234.095" y1="211.533" x2="233.935" y2="215.75" gradientUnits="userSpaceOnUse">
<stop stop-color="#7AB33D"/>
<stop offset="1" stop-color="#77B03A" stop-opacity="0"/>
</linearGradient>
<linearGradient id="paint15_linear_214_383" x1="135.746" y1="240.401" x2="139.798" y2="241.556" gradientUnits="userSpaceOnUse">
<stop stop-color="#1E198C"/>
<stop offset="1" stop-color="#2B2699" stop-opacity="0"/>
</linearGradient>
<linearGradient id="paint16_linear_214_383" x1="179.469" y1="235.087" x2="183.514" y2="236.25" gradientUnits="userSpaceOnUse">
<stop stop-color="#3931DC"/>
<stop offset="1" stop-color="#554EDA" stop-opacity="0"/>
</linearGradient>
<linearGradient id="paint17_linear_214_383" x1="232.647" y1="206.289" x2="232.494" y2="210.506" gradientUnits="userSpaceOnUse">
<stop stop-color="#7AB33D"/>
<stop offset="1" stop-color="#77B03A" stop-opacity="0"/>
</linearGradient>
<linearGradient id="paint18_linear_214_383" x1="131.047" y1="240.401" x2="135.099" y2="241.556" gradientUnits="userSpaceOnUse">
<stop stop-color="#1E198C"/>
<stop offset="1" stop-color="#2B2699" stop-opacity="0"/>
</linearGradient>
<linearGradient id="paint19_linear_214_383" x1="174.766" y1="235.087" x2="178.811" y2="236.25" gradientUnits="userSpaceOnUse">
<stop stop-color="#3931DC"/>
<stop offset="1" stop-color="#554EDA" stop-opacity="0"/>
</linearGradient>
<linearGradient id="paint20_linear_214_383" x1="231.387" y1="201.757" x2="231.247" y2="205.971" gradientUnits="userSpaceOnUse">
<stop stop-color="#7AB33D"/>
<stop offset="1" stop-color="#77B03A" stop-opacity="0"/>
</linearGradient>
<linearGradient id="paint21_linear_214_383" x1="126.344" y1="240.401" x2="130.396" y2="241.556" gradientUnits="userSpaceOnUse">
<stop stop-color="#1E198C"/>
<stop offset="1" stop-color="#2B2699" stop-opacity="0"/>
</linearGradient>
<linearGradient id="paint22_linear_214_383" x1="170.063" y1="235.087" x2="174.108" y2="236.25" gradientUnits="userSpaceOnUse">
<stop stop-color="#3931DC"/>
<stop offset="1" stop-color="#554EDA" stop-opacity="0"/>
</linearGradient>
<linearGradient id="paint23_linear_214_383" x1="230.092" y1="197.076" x2="229.962" y2="201.269" gradientUnits="userSpaceOnUse">
<stop stop-color="#7AB33D"/>
<stop offset="1" stop-color="#77B03A" stop-opacity="0"/>
</linearGradient>
<linearGradient id="paint24_linear_214_383" x1="114.173" y1="221.779" x2="84.8253" y2="216.101" gradientUnits="userSpaceOnUse">
<stop stop-color="#8BC151"/>
<stop offset="1" stop-color="#6EAA2D"/>
</linearGradient>
<linearGradient id="paint25_linear_214_383" x1="158.337" y1="133.912" x2="183.165" y2="147.173" gradientUnits="userSpaceOnUse">
<stop stop-color="#090F35"/>
<stop offset="1" stop-color="#1F2E83" stop-opacity="0"/>
</linearGradient>
<linearGradient id="paint26_linear_214_383" x1="165.514" y1="191.698" x2="172.941" y2="190.211" gradientUnits="userSpaceOnUse">
<stop stop-color="#ECECEC"/>
<stop offset="1" stop-color="#F4F4F4" stop-opacity="0"/>
</linearGradient>
<linearGradient id="paint27_linear_214_383" x1="165.514" y1="191.698" x2="172.941" y2="190.211" gradientUnits="userSpaceOnUse">
<stop stop-color="#ECECEC"/>
<stop offset="1" stop-color="#F4F4F4" stop-opacity="0"/>
</linearGradient>
<linearGradient id="paint28_linear_214_383" x1="176.246" y1="167.267" x2="170.847" y2="167.487" gradientUnits="userSpaceOnUse">
<stop stop-color="#0D00EE"/>
<stop offset="1" stop-color="#080361" stop-opacity="0"/>
</linearGradient>
<linearGradient id="paint29_linear_214_383" x1="191.954" y1="157.469" x2="185.646" y2="158.665" gradientUnits="userSpaceOnUse">
<stop stop-color="#0D00EE"/>
<stop offset="1" stop-color="#080361" stop-opacity="0"/>
</linearGradient>
<linearGradient id="paint30_linear_214_383" x1="147.416" y1="123.489" x2="156.922" y2="142.656" gradientUnits="userSpaceOnUse">
<stop stop-color="#0E1333"/>
<stop offset="1" stop-color="#202F84" stop-opacity="0"/>
</linearGradient>
<linearGradient id="paint31_linear_214_383" x1="86.6673" y1="163.162" x2="102.196" y2="173.086" gradientUnits="userSpaceOnUse">
<stop stop-color="#2036B5"/>
<stop offset="1" stop-color="#202F84" stop-opacity="0"/>
</linearGradient>
<linearGradient id="paint32_linear_214_383" x1="121.227" y1="153.306" x2="117.244" y2="108.7" gradientUnits="userSpaceOnUse">
<stop stop-color="#FADEA3"/>
<stop offset="1" stop-color="#FFCA5B"/>
</linearGradient>
<linearGradient id="paint33_linear_214_383" x1="153.343" y1="177.093" x2="144.196" y2="171.591" gradientUnits="userSpaceOnUse">
<stop stop-color="#1639FF"/>
<stop offset="1" stop-color="#202F84" stop-opacity="0"/>
</linearGradient>
<linearGradient id="paint34_linear_214_383" x1="176.718" y1="42.2136" x2="167.07" y2="44.5232" gradientUnits="userSpaceOnUse">
<stop stop-color="#F4B88E"/>
<stop offset="0.978667" stop-color="#FFA261"/>
</linearGradient>
<linearGradient id="paint35_linear_214_383" x1="180.133" y1="42.44" x2="177.331" y2="44.1284" gradientUnits="userSpaceOnUse">
<stop stop-color="#FF8A37"/>
<stop offset="1" stop-color="#FAAD78" stop-opacity="0"/>
</linearGradient>
<linearGradient id="paint36_linear_214_383" x1="167.871" y1="30.6532" x2="178.15" y2="31.4367" gradientUnits="userSpaceOnUse">
<stop stop-color="#FEA568"/>
<stop offset="1" stop-color="#F4B88E"/>
</linearGradient>
<linearGradient id="paint37_linear_214_383" x1="171.612" y1="37.4434" x2="174.674" y2="35.7711" gradientUnits="userSpaceOnUse">
<stop stop-color="#FF9F5B"/>
<stop offset="0.961909" stop-color="#F4B88E" stop-opacity="0"/>
</linearGradient>
<linearGradient id="paint38_linear_214_383" x1="186.742" y1="30.0443" x2="185.922" y2="29.9165" gradientUnits="userSpaceOnUse">
<stop stop-color="#FFCAA6"/>
<stop offset="1" stop-color="#FFCAA6" stop-opacity="0"/>
</linearGradient>
<linearGradient id="paint39_linear_214_383" x1="167.866" y1="32.1575" x2="178.633" y2="19.2617" gradientUnits="userSpaceOnUse">
<stop offset="0.0300609" stop-color="#872E1E"/>
<stop offset="1" stop-color="#B6250C"/>
</linearGradient>
<linearGradient id="paint40_linear_214_383" x1="197.056" y1="14.1513" x2="171.4" y2="21.7036" gradientUnits="userSpaceOnUse">
<stop stop-color="#EEC120"/>
<stop offset="1" stop-color="#B6250C" stop-opacity="0"/>
</linearGradient>
<linearGradient id="paint41_linear_214_383" x1="188.911" y1="25.4781" x2="166.081" y2="27.9076" gradientUnits="userSpaceOnUse">
<stop stop-color="#FFCB7C" stop-opacity="0.89"/>
<stop offset="1" stop-color="#FC340E"/>
</linearGradient>
<linearGradient id="paint42_linear_214_383" x1="189.771" y1="24.4632" x2="166.941" y2="26.8927" gradientUnits="userSpaceOnUse">
<stop stop-color="#FFCB7C" stop-opacity="0.89"/>
<stop offset="1" stop-color="#FC340E"/>
</linearGradient>
<linearGradient id="paint43_linear_214_383" x1="192.002" y1="18.0123" x2="174.195" y2="21.5266" gradientUnits="userSpaceOnUse">
<stop stop-color="#FFC700" stop-opacity="0.58"/>
<stop offset="1" stop-color="#D0A715" stop-opacity="0"/>
</linearGradient>
<linearGradient id="paint44_linear_214_383" x1="168.076" y1="32.6921" x2="172.752" y2="28.4804" gradientUnits="userSpaceOnUse">
<stop stop-color="#033799"/>
<stop offset="1" stop-color="#0C55DE" stop-opacity="0"/>
</linearGradient>
<linearGradient id="paint45_linear_214_383" x1="164.086" y1="23.0266" x2="178.838" y2="25.5363" gradientUnits="userSpaceOnUse">
<stop stop-color="#1047AE"/>
<stop offset="1" stop-color="#0C55DE" stop-opacity="0"/>
</linearGradient>
<linearGradient id="paint46_linear_214_383" x1="167.823" y1="25.7641" x2="192.986" y2="16.7089" gradientUnits="userSpaceOnUse">
<stop stop-color="#002A77"/>
<stop offset="1" stop-color="#114DBD" stop-opacity="0"/>
</linearGradient>
<linearGradient id="paint47_linear_214_383" x1="130.262" y1="78.9103" x2="157.2" y2="79.35" gradientUnits="userSpaceOnUse">
<stop stop-color="#EA6002"/>
<stop offset="1" stop-color="#FEAC00" stop-opacity="0"/>
</linearGradient>
<linearGradient id="paint48_linear_214_383" x1="177.212" y1="84.2099" x2="167.967" y2="84.7246" gradientUnits="userSpaceOnUse">
<stop stop-color="#FFC64F"/>
<stop offset="1" stop-color="#FEAC00" stop-opacity="0"/>
</linearGradient>
<linearGradient id="paint49_linear_214_383" x1="130.635" y1="72.903" x2="119.427" y2="58.2746" gradientUnits="userSpaceOnUse">
<stop stop-color="#FFC700"/>
<stop offset="1" stop-color="#F4E9A6" stop-opacity="0"/>
</linearGradient>
<linearGradient id="paint50_linear_214_383" x1="107.154" y1="98.127" x2="94.9453" y2="117.315" gradientUnits="userSpaceOnUse">
<stop stop-color="#F4B88E"/>
<stop offset="0.978667" stop-color="#FFA261"/>
</linearGradient>
<linearGradient id="paint51_linear_214_383" x1="117.978" y1="87.0501" x2="111.013" y2="110.233" gradientUnits="userSpaceOnUse">
<stop stop-color="#FF8A37"/>
<stop offset="1" stop-color="#FAAD78" stop-opacity="0"/>
</linearGradient>
<linearGradient id="paint52_linear_214_383" x1="126.296" y1="54.0454" x2="128.927" y2="67.2332" gradientUnits="userSpaceOnUse">
<stop stop-color="#FF8A00"/>
<stop offset="1" stop-color="#FEAC00" stop-opacity="0"/>
</linearGradient>
<linearGradient id="paint53_linear_214_383" x1="115.033" y1="91.649" x2="114.138" y2="82.4488" gradientUnits="userSpaceOnUse">
<stop stop-color="#FF7A00" stop-opacity="0.61"/>
<stop offset="1" stop-color="#FEAC00" stop-opacity="0"/>
</linearGradient>
<linearGradient id="paint54_linear_214_383" x1="156.317" y1="72.0655" x2="149.439" y2="63.5969" gradientUnits="userSpaceOnUse">
<stop stop-color="#FE8900"/>
<stop offset="1" stop-color="#FEAC00" stop-opacity="0"/>
</linearGradient>
</defs>
</svg>
