<svg width="256" height="256" viewBox="0 0 256 256" fill="none" xmlns="http://www.w3.org/2000/svg">
<path d="M126.864 1.50714C127.433 0.75212 128.567 0.752119 129.136 1.50713L154.41 35.0441C154.788 35.5454 155.449 35.7398 156.038 35.5223L195.432 20.9734C196.319 20.6458 197.272 21.2587 197.343 22.2015L200.473 64.0788C200.52 64.7048 200.972 65.2261 201.585 65.3615L242.59 74.4198C243.513 74.6237 243.984 75.6549 243.534 76.4861L223.527 113.408C223.228 113.96 223.326 114.643 223.768 115.088L253.367 144.878C254.033 145.548 253.872 146.67 253.044 147.126L216.251 167.37C215.701 167.673 215.415 168.3 215.546 168.914L224.341 209.977C224.539 210.901 223.796 211.758 222.853 211.694L180.957 208.832C180.33 208.79 179.75 209.163 179.529 209.75L164.727 249.049C164.394 249.934 163.306 250.253 162.547 249.689L128.849 224.631C128.345 224.256 127.655 224.256 127.151 224.631L93.4526 249.689C92.694 250.253 91.6063 249.934 91.273 249.049L76.4712 209.75C76.25 209.163 75.6697 208.79 75.0434 208.832L33.1469 211.694C32.2037 211.758 31.4613 210.901 31.6593 209.977L40.4539 168.914C40.5853 168.3 40.2988 167.673 39.7488 167.37L2.95629 147.126C2.12799 146.67 1.96665 145.548 2.63301 144.878L32.2318 115.088C32.6742 114.643 32.7724 113.96 32.4733 113.408L12.4662 76.4861C12.0158 75.6549 12.4867 74.6237 13.4099 74.4198L54.4154 65.3615C55.0284 65.2261 55.4801 64.7048 55.5269 64.0788L58.6573 22.2015C58.7278 21.2587 59.6814 20.6458 60.5683 20.9734L99.9616 35.5223C100.551 35.7398 101.212 35.5454 101.59 35.0441L126.864 1.50714Z" fill="#66EAB3" stroke="#111114" stroke-width="1.42222"/>
<path d="M64.5182 125V119.432L78.8542 107.144C81.1156 105.224 82.8436 103.517 84.0383 102.024C85.2756 100.488 86.1289 98.9733 86.5983 97.48C87.1103 95.9867 87.3663 94.3653 87.3663 92.616C87.3663 89.032 86.5769 86.216 84.9983 84.168C83.4196 82.0773 81.2009 81.032 78.3423 81.032C76.6783 81.032 75.1423 81.3733 73.7343 82.056C72.3263 82.696 71.1956 83.528 70.3423 84.552C69.4889 85.5333 69.0623 86.5573 69.0623 87.624C69.0623 88.0507 69.1263 88.3707 69.2543 88.584C69.4249 88.7547 69.6383 88.84 69.8943 88.84C70.2783 88.84 70.7049 88.712 71.1743 88.456C71.6436 88.2 72.3049 88.072 73.1583 88.072C74.3956 88.072 75.3556 88.4347 76.0383 89.16C76.7209 89.8427 77.0623 90.824 77.0623 92.104C77.0623 93.768 76.5716 94.9627 75.5903 95.688C74.6089 96.4133 73.4569 96.776 72.1343 96.776C70.7689 96.776 69.6383 96.4347 68.7423 95.752C67.8463 95.0267 67.1849 94.1307 66.7583 93.064C66.3316 91.9547 66.1183 90.8027 66.1183 89.608C66.1183 87.1333 66.8649 85.0427 68.3583 83.336C69.8516 81.6293 71.7929 80.3493 74.1823 79.496C76.5716 78.6 79.0676 78.152 81.6703 78.152C83.5476 78.152 85.4036 78.3867 87.2383 78.856C89.0729 79.3253 90.7369 80.0507 92.2303 81.032C93.7663 82.0133 94.9823 83.2933 95.8783 84.872C96.7743 86.408 97.2223 88.2427 97.2223 90.376C97.2223 91.6133 97.0089 92.8933 96.5823 94.216C96.1556 95.5387 95.3876 96.904 94.2783 98.312C93.2116 99.72 91.6756 101.213 89.6703 102.792L71.3663 117.192V117.448H91.5263C92.5503 117.448 93.3396 117.32 93.8943 117.064C94.4489 116.808 94.8329 116.211 95.0463 115.272C95.3023 114.291 95.4303 112.776 95.4303 110.728H97.2223V125H64.5182ZM116.848 125.768C113.99 125.768 111.494 125.405 109.36 124.68C107.227 123.912 105.563 122.867 104.368 121.544C103.174 120.179 102.576 118.643 102.576 116.936C102.576 115.357 103.046 114.077 103.984 113.096C104.923 112.115 106.118 111.624 107.568 111.624C108.848 111.624 109.958 111.987 110.896 112.712C111.835 113.395 112.304 114.419 112.304 115.784C112.304 116.68 112.134 117.384 111.792 117.896C111.451 118.365 111.046 118.771 110.576 119.112C110.107 119.411 109.702 119.709 109.36 120.008C109.019 120.264 108.848 120.627 108.848 121.096C108.848 121.651 109.168 122.12 109.808 122.504C110.491 122.888 111.323 123.187 112.304 123.4C113.328 123.571 114.352 123.656 115.376 123.656C118.619 123.656 121.136 122.675 122.928 120.712C124.72 118.707 125.616 115.72 125.616 111.752C125.616 107.357 124.614 104.179 122.608 102.216C120.603 100.211 118.022 99.208 114.864 99.208C113.456 99.208 111.984 99.3787 110.448 99.72C108.955 100.061 107.846 100.509 107.12 101.064L107.696 98.248C108.038 98.0773 108.699 97.864 109.68 97.608C110.662 97.352 111.835 97.1387 113.2 96.968C114.608 96.7973 116.102 96.712 117.68 96.712C121.691 96.712 125.062 97.3307 127.792 98.568C130.523 99.8053 132.571 101.491 133.936 103.624C135.344 105.715 136.048 108.083 136.048 110.728C136.048 113.757 135.174 116.403 133.424 118.664C131.718 120.925 129.414 122.675 126.512 123.912C123.611 125.149 120.39 125.768 116.848 125.768ZM107.12 101.064L106.032 100.424L108.144 79.176H110.512L108.464 99.208L107.12 101.064ZM109.872 86.728L108.272 79.176H127.6C128.966 79.176 129.926 79.0267 130.48 78.728C131.078 78.4293 131.59 77.832 132.016 76.936H133.808L131.504 86.728H109.872ZM151.66 125L178.54 76.808H182.956L156.076 125H151.66ZM152.812 102.536C150.636 102.536 148.652 102.003 146.86 100.936C145.111 99.8267 143.703 98.2907 142.636 96.328C141.612 94.3227 141.1 92.0187 141.1 89.416C141.1 86.8133 141.612 84.5307 142.636 82.568C143.703 80.5627 145.111 79.0053 146.86 77.896C148.652 76.7867 150.636 76.232 152.812 76.232C155.031 76.232 157.015 76.7867 158.764 77.896C160.556 79.0053 161.964 80.5627 162.988 82.568C164.055 84.5307 164.588 86.8133 164.588 89.416C164.588 92.0187 164.055 94.3227 162.988 96.328C161.964 98.2907 160.556 99.8267 158.764 100.936C157.015 102.003 155.031 102.536 152.812 102.536ZM152.812 101.192C154.007 101.192 154.967 100.893 155.692 100.296C156.418 99.656 156.951 98.4827 157.292 96.776C157.634 95.0693 157.804 92.616 157.804 89.416C157.804 86.1733 157.634 83.72 157.292 82.056C156.951 80.3493 156.418 79.176 155.692 78.536C154.967 77.896 154.007 77.576 152.812 77.576C151.575 77.576 150.594 77.896 149.868 78.536C149.143 79.176 148.631 80.3493 148.332 82.056C148.034 83.72 147.884 86.1733 147.884 89.416C147.884 92.616 148.034 95.0693 148.332 96.776C148.631 98.4827 149.143 99.656 149.868 100.296C150.594 100.893 151.575 101.192 152.812 101.192ZM182.252 125.512C180.076 125.512 178.092 124.979 176.3 123.912C174.551 122.803 173.143 121.267 172.076 119.304C171.052 117.299 170.54 114.995 170.54 112.392C170.54 109.789 171.052 107.507 172.076 105.544C173.143 103.539 174.551 101.981 176.3 100.872C178.092 99.7627 180.076 99.208 182.252 99.208C184.471 99.208 186.455 99.7627 188.204 100.872C189.996 101.981 191.404 103.539 192.428 105.544C193.495 107.507 194.028 109.789 194.028 112.392C194.028 114.995 193.495 117.299 192.428 119.304C191.404 121.267 189.996 122.803 188.204 123.912C186.455 124.979 184.471 125.512 182.252 125.512ZM182.252 124.168C183.447 124.168 184.407 123.869 185.132 123.272C185.858 122.632 186.391 121.48 186.732 119.816C187.074 118.109 187.244 115.635 187.244 112.392C187.244 109.192 187.074 106.739 186.732 105.032C186.391 103.325 185.858 102.152 185.132 101.512C184.407 100.872 183.447 100.552 182.252 100.552C181.015 100.552 180.034 100.872 179.308 101.512C178.583 102.152 178.071 103.325 177.772 105.032C177.474 106.739 177.324 109.192 177.324 112.392C177.324 115.635 177.474 118.109 177.772 119.816C178.071 121.48 178.583 122.632 179.308 123.272C180.034 123.869 181.015 124.168 182.252 124.168ZM108.602 199.832C105.359 199.832 102.351 199.149 99.5775 197.784C96.8042 196.419 94.3722 194.584 92.2815 192.28C90.1908 189.933 88.5482 187.267 87.3535 184.28C86.2015 181.293 85.6255 178.136 85.6255 174.808C85.6255 171.523 86.2015 168.408 87.3535 165.464C88.5482 162.477 90.1908 159.832 92.2815 157.528C94.3722 155.224 96.8042 153.411 99.5775 152.088C102.351 150.765 105.359 150.104 108.602 150.104C111.844 150.104 114.852 150.765 117.626 152.088C120.442 153.411 122.895 155.224 124.986 157.528C127.076 159.832 128.698 162.477 129.85 165.464C131.044 168.408 131.642 171.523 131.642 174.808C131.642 178.136 131.044 181.293 129.85 184.28C128.698 187.267 127.076 189.933 124.986 192.28C122.895 194.584 120.442 196.419 117.626 197.784C114.852 199.149 111.844 199.832 108.602 199.832ZM108.602 197.72C110.735 197.72 112.548 197.379 114.042 196.696C115.578 196.013 116.815 194.84 117.754 193.176C118.692 191.469 119.375 189.144 119.802 186.2C120.228 183.213 120.442 179.437 120.442 174.872C120.442 170.307 120.228 166.552 119.802 163.608C119.375 160.664 118.692 158.36 117.754 156.696C116.815 155.032 115.578 153.859 114.042 153.176C112.548 152.493 110.735 152.152 108.602 152.152C106.426 152.152 104.591 152.493 103.098 153.176C101.604 153.859 100.388 155.032 99.4495 156.696C98.5535 158.36 97.8922 160.664 97.4655 163.608C97.0388 166.552 96.8255 170.285 96.8255 174.808C96.8255 179.459 97.0388 183.277 97.4655 186.264C97.8922 189.208 98.5748 191.533 99.5135 193.24C100.452 194.904 101.647 196.077 103.098 196.76C104.591 197.4 106.426 197.72 108.602 197.72ZM160.425 199V168.344C160.425 164.504 160.894 161.219 161.833 158.488C162.814 155.757 164.243 153.667 166.121 152.216C167.998 150.723 170.259 149.976 172.905 149.976C175.337 149.976 177.235 150.531 178.601 151.64C180.009 152.707 180.713 154.051 180.713 155.672C180.713 156.867 180.329 157.827 179.561 158.552C178.835 159.277 177.875 159.64 176.681 159.64C175.699 159.64 174.867 159.363 174.185 158.808C173.502 158.211 173.161 157.4 173.161 156.376C173.161 155.736 173.246 155.245 173.417 154.904C173.63 154.563 173.843 154.264 174.057 154.008C174.27 153.752 174.377 153.432 174.377 153.048C174.377 152.28 173.779 151.896 172.585 151.896C171.262 151.896 170.217 152.429 169.449 153.496C168.723 154.52 168.361 156.376 168.361 159.064V199H160.425ZM135.657 199V197.208H153.641V199H135.657ZM156.073 199V197.208H175.209V199H156.073ZM141.289 199V170.456C141.289 166.616 141.779 163.331 142.76 160.6C143.742 157.869 145.171 155.779 147.049 154.328C148.926 152.835 151.187 152.088 153.833 152.088C156.265 152.088 158.163 152.643 159.529 153.752C160.937 154.819 161.641 156.163 161.641 157.784C161.641 158.979 161.257 159.939 160.489 160.664C159.763 161.389 158.803 161.752 157.609 161.752C156.627 161.752 155.795 161.475 155.113 160.92C154.43 160.323 154.089 159.512 154.089 158.488C154.089 157.848 154.174 157.357 154.345 157.016C154.558 156.675 154.771 156.376 154.985 156.12C155.198 155.864 155.305 155.544 155.305 155.16C155.305 154.392 154.707 154.008 153.513 154.008C152.19 154.008 151.145 154.541 150.377 155.608C149.651 156.632 149.289 158.488 149.289 161.176V199H141.289ZM135.593 171.992V170.2H175.721V171.992H135.593Z" fill="#111114"/>
</svg>
