<svg width="20" height="20" viewBox="0 0 20 20" fill="none" xmlns="http://www.w3.org/2000/svg">
<path d="M16.6668 6.66658H14.1668V3.33325H2.50016C1.5835 3.33325 0.833496 4.08325 0.833496 4.99992V14.1666H2.50016C2.50016 15.5499 3.61683 16.6666 5.00016 16.6666C6.3835 16.6666 7.50016 15.5499 7.50016 14.1666H12.5002C12.5002 15.5499 13.6168 16.6666 15.0002 16.6666C16.3835 16.6666 17.5002 15.5499 17.5002 14.1666H19.1668V9.99992L16.6668 6.66658ZM5.00016 15.4166C4.3085 15.4166 3.75016 14.8583 3.75016 14.1666C3.75016 13.4749 4.3085 12.9166 5.00016 12.9166C5.69183 12.9166 6.25016 13.4749 6.25016 14.1666C6.25016 14.8583 5.69183 15.4166 5.00016 15.4166ZM16.2502 7.91658L17.8835 9.99992H14.1668V7.91658H16.2502ZM15.0002 15.4166C14.3085 15.4166 13.7502 14.8583 13.7502 14.1666C13.7502 13.4749 14.3085 12.9166 15.0002 12.9166C15.6918 12.9166 16.2502 13.4749 16.2502 14.1666C16.2502 14.8583 15.6918 15.4166 15.0002 15.4166Z" fill="white"/>
</svg>
