<svg width="30" height="30" viewBox="0 0 30 30" fill="none" xmlns="http://www.w3.org/2000/svg">
<path d="M1.76072 27.082C-1.22243 24.1155 -0.294177 18.5767 3.63278 14.6717C7.55951 10.7669 13.1295 9.84358 16.1126 12.8101C19.0958 15.7766 18.1673 21.3159 14.2406 25.2204C10.3137 29.1254 4.74381 30.0485 1.76072 27.082ZM11.2004 16.6304C10.8636 17.9706 10.0704 18.7594 8.72247 19.0943C6.74233 19.5868 5.45558 20.8664 4.96057 22.8355C4.84228 23.3058 5.12983 23.7822 5.60259 23.8997C6.07532 24.0173 6.55466 23.7314 6.67274 23.2612C7.00977 21.9208 7.80297 21.1323 9.15066 20.7971C11.1308 20.3049 12.4178 19.0251 12.9128 17.056C13.0311 16.5859 12.7435 16.1094 12.2708 15.9918C11.7978 15.8742 11.3187 16.1601 11.2004 16.6304V16.6304ZM17.2465 11.4579C20.8479 9.89337 25.6092 12.219 28.2432 16.7561C31.0199 21.5388 30.475 27.1276 26.8214 29.2253C23.5618 31.0968 19.1188 29.4477 16.227 25.674C20.1739 21.1681 20.8941 15.0824 17.3602 11.5683C17.3226 11.5309 17.2846 11.4939 17.2464 11.4574L17.2465 11.4579ZM20.8651 20.4708C20.8307 22.5003 21.7407 24.0675 23.5252 25.0527C23.9515 25.288 24.4886 25.135 24.7251 24.7114C24.9617 24.2876 24.8081 23.7535 24.3819 23.5182C23.1672 22.8477 22.6065 21.8817 22.6299 20.5004C22.6379 20.0157 22.2495 19.6164 21.7623 19.6081C21.2749 19.6001 20.8733 19.9862 20.8651 20.4708L20.8651 20.4708ZM4.29197 7.25172C3.89463 8.70089 3.89463 9.98782 4.27774 11.1312C4.43192 11.591 4.18197 12.0879 3.71962 12.2412C3.25729 12.3945 2.7576 12.1459 2.60342 11.6862C2.10413 10.1967 2.10413 8.55849 2.58919 6.79007C3.06511 5.05495 4.00674 3.338 5.405 1.63862C5.7227 1.25258 6.29949 1.20717 6.67435 1.53852C9.51968 4.05356 10.8287 6.65726 10.4936 9.32367C10.4331 9.80454 9.99198 10.1456 9.50842 10.0856C9.02486 10.0255 8.68189 9.58682 8.74218 9.10596C8.97026 7.2925 8.14627 5.42839 6.19163 3.49416C5.26337 4.75914 4.63196 6.01168 4.292 7.25158L4.29197 7.25172ZM12.8167 5.951C12.4361 6.25384 11.881 6.19239 11.5764 5.81394C11.2719 5.4355 11.3337 4.88324 11.7143 4.58043C13.0526 3.51586 13.9826 2.19465 14.5169 0.600428C14.7074 0.0323283 15.4019 -0.183493 15.8838 0.175943C18.8922 2.4198 20.2163 4.38739 20.9248 7.43938C22.0714 6.624 22.6303 5.3442 22.6303 3.51048C22.6303 2.76921 23.4976 2.36184 24.0734 2.83279C26.7802 5.04707 28.15 7.92828 28.15 11.4084C28.15 11.893 27.755 12.2858 27.2676 12.2858C26.7802 12.2858 26.385 11.893 26.385 11.4084C26.385 9.04875 25.6626 7.05326 24.2008 5.38729C23.7574 7.37137 22.5577 8.79838 20.6277 9.58717C20.1046 9.80088 19.5172 9.47714 19.4223 8.92278C18.9143 5.95415 18.0469 4.22411 15.7347 2.29513C15.0657 3.71575 14.0912 4.93705 12.8167 5.95074L12.8167 5.951Z" fill="#FB8F2C"/>
</svg>
