<svg width="30" height="30" viewBox="0 0 30 30" fill="none" xmlns="http://www.w3.org/2000/svg">
<path d="M29.8789 24.3696L28.1245 21.9097L29.8087 20.2001C29.9427 20.0696 30.0065 19.8804 29.9937 19.6911C29.9809 19.5019 29.8917 19.3323 29.7448 19.2149L29.3558 18.9213C28.2582 18.0848 26.9524 17.6583 25.6367 17.6509V24.2787C26.5728 24.3751 27.4957 24.6214 28.3672 25.0158L29.1008 25.3486C29.1839 25.3877 29.273 25.4074 29.3625 25.4074C29.5475 25.4074 29.7325 25.3224 29.8601 25.166C30.0382 24.9308 30.0446 24.611 29.8788 24.3696L29.8789 24.3696Z" fill="#FB8F2C"/>
<path d="M0.253022 19.2214C0.106181 19.3322 0.0105956 19.5084 0.00419133 19.6976C-0.00862407 19.8869 0.0551857 20.0696 0.189212 20.2001L1.86697 21.9096L0.119017 24.3696C-0.0467837 24.611 -0.0403726 24.9374 0.144648 25.1657C0.265857 25.3222 0.450884 25.4071 0.635905 25.4071C0.725346 25.4071 0.81452 25.3874 0.89755 25.3484L1.63121 25.0155C2.50211 24.6214 3.42188 24.3751 4.35552 24.2787V17.6484C3.03871 17.6566 1.73106 18.0862 0.629692 18.9279L0.253022 19.2214Z" fill="#FB8F2C"/>
<path d="M19.8633 26.3201C18.4854 27.8403 16.9544 29.0539 15.2895 29.9283C15.1939 29.9739 15.0981 30.0002 14.9961 30.0002C14.8941 30.0002 14.7983 29.9739 14.7027 29.9283C13.0378 29.0539 11.5068 27.8403 10.1289 26.3201H19.8633Z" fill="#FB8F2C"/>
<path d="M27.3981 6.5236C27.3788 6.74535 27.0344 11.2608 25.2993 16.448C24.9484 15.939 24.3742 15.5998 23.7235 15.5998L6.26994 15.5995C5.61929 15.5995 5.04526 15.9324 4.70058 16.4478C2.95905 11.2671 2.61457 6.74494 2.59537 6.52333C2.58255 6.34719 2.64636 6.16449 2.76757 6.03396C2.88878 5.89687 3.05458 5.82505 3.2332 5.82505H5.48495C6.33986 5.82505 7.02868 5.04212 7.02868 4.08303V2.51718C7.02868 2.27578 7.1627 2.05403 7.37309 1.94289C12.1447 -0.647629 17.8475 -0.647629 22.6197 1.94289C22.8303 2.05376 22.9641 2.27578 22.9641 2.51718V4.08303C22.9641 5.04212 23.6593 5.82505 24.5142 5.82505H26.7596C26.9382 5.82505 27.104 5.89686 27.2252 6.03396C27.347 6.16449 27.4108 6.34719 27.398 6.5236H27.3981Z" fill="#FB8F2C"/>
<path d="M23.7242 16.9048H6.27064C5.91982 16.9048 5.63281 17.1984 5.63281 17.5572V24.3628C5.63281 24.7282 5.91982 25.0152 6.27064 25.0152H23.7242C24.075 25.0152 24.362 24.7282 24.362 24.3628V17.5572C24.362 17.1984 24.075 16.9048 23.7242 16.9048Z" fill="#FB8F2C"/>
</svg>
