<svg width="28" height="30" viewBox="0 0 28 30" fill="none" xmlns="http://www.w3.org/2000/svg">
<path d="M11.051 10.0557C10.9101 10.0557 10.7733 10.0117 10.6606 9.93001C10.5214 9.83095 10.4287 9.68251 10.4032 9.51724C10.3776 9.35224 10.4209 9.18416 10.5237 9.05003C10.9886 8.42792 11.239 7.68013 11.239 6.91294C11.239 6.14574 10.9886 5.39793 10.5237 4.77584C9.78641 3.9733 9.43433 2.90727 9.5543 1.84045C9.67457 1.14483 10.0717 0.522418 10.6606 0.105775C10.9569 -0.0853205 11.3573 -0.0103965 11.5586 0.273294C11.7599 0.557266 11.6873 0.944787 11.3959 1.14286C11.0952 1.37155 10.8953 1.70154 10.8363 2.06658C10.7954 2.78381 11.056 3.48619 11.5586 4.01511C12.198 4.85271 12.5431 5.86601 12.5431 6.90647C12.5431 7.94722 12.198 8.96052 11.5586 9.79783C11.4397 9.95497 11.2524 10.0504 11.051 10.0557V10.0557Z" fill="#FB8F2C"/>
<path d="M6.49483 9.45227C6.32169 9.45339 6.15551 9.38773 6.03262 9.27015C5.78045 9.0249 5.78045 8.62896 6.03262 8.38371C6.33709 8.02537 6.52505 7.58792 6.57298 7.12659C6.67351 6.52553 6.46752 5.91466 6.01984 5.48617C5.5335 5.04534 5.25781 4.42998 5.25781 3.78598C5.25781 3.14199 5.53351 2.52635 6.01984 2.08578C6.27956 1.88796 6.65142 1.90957 6.88442 2.13629C7.11741 2.36302 7.13746 2.72248 6.9309 2.97195C6.68948 3.17848 6.55148 3.4748 6.55148 3.78599C6.55148 4.09717 6.68948 4.39349 6.9309 4.60002C8.54472 6.14613 7.81579 8.42157 6.9309 9.25752C6.81643 9.37369 6.66043 9.44356 6.49483 9.45225V9.45227Z" fill="#FB8F2C"/>
<path d="M16.2541 9.40205C16.0809 9.40317 15.9147 9.33751 15.7919 9.21993C15.5397 8.97468 15.5397 8.57874 15.7919 8.33349C16.0989 7.97655 16.2872 7.53856 16.3322 7.07637C16.4234 6.48682 16.221 5.88995 15.7855 5.46741C15.2991 5.02658 15.0234 4.41122 15.0234 3.76722C15.0234 3.12295 15.2991 2.50759 15.7855 2.06674C16.037 1.81869 16.4493 1.81448 16.7064 2.05748C16.9632 2.30048 16.9676 2.69867 16.716 2.94673C16.4749 3.15325 16.3369 3.44957 16.3369 3.76076C16.3369 4.07195 16.4749 4.36827 16.716 4.5748C18.3298 6.1209 17.6009 8.39635 16.716 9.23876C16.5902 9.3496 16.4243 9.40825 16.2541 9.40207L16.2541 9.40205Z" fill="#FB8F2C"/>
<path d="M21.4751 13.0291L0.650761 13.1046C0.291102 13.1046 0 13.386 0 13.7332C0 21.3642 5.01726 27.5614 11.1217 27.5614C17.2258 27.5614 22.1846 21.3134 22.1259 13.6829C22.1329 13.5117 22.0675 13.3453 21.9446 13.2218C21.8217 13.0986 21.6523 13.0291 21.4751 13.0291V13.0291Z" fill="#FB8F2C"/>
<path d="M23.349 12.9663C23.3978 13.1277 23.4239 13.2946 23.4271 13.463V14.2739V14.2736C24.8411 14.6721 25.9683 15.7061 26.4532 17.0497C26.9381 18.393 26.7202 19.8799 25.8689 21.0408C25.0175 22.2019 23.6375 22.8936 22.1645 22.8976C21.7232 22.899 21.2842 22.8356 20.863 22.709C20.6201 23.0862 20.3662 23.4506 20.1016 23.8029C21.6279 24.3517 23.3223 24.2622 24.7775 23.5554C26.2323 22.8485 27.3171 21.588 27.7707 20.0773C28.2244 18.5662 28.0063 16.9409 27.1684 15.5918C26.3308 14.2427 24.9491 13.2914 23.3553 12.9664L23.349 12.9663Z" fill="#FB8F2C"/>
<path d="M20.5072 29.9998H1.63514C1.27577 29.9998 0.984375 29.7183 0.984375 29.3712C0.984375 29.0241 1.27577 28.7427 1.63514 28.7427H20.5072C20.8666 28.7427 21.158 29.0241 21.158 29.3712C21.158 29.7183 20.8666 29.9998 20.5072 29.9998Z" fill="#FB8F2C"/>
</svg>
