<svg width="20" height="14" viewBox="0 0 20 14" fill="none" xmlns="http://www.w3.org/2000/svg">
<path d="M10.5116 0.0325235C10.3446 0.0122196 10.1759 0 10.0054 0H10.0021H10.0004C9.82725 0 9.65706 0.0124077 9.48837 0.0325235C3.06082 0.379001 0 7.00134 0 7.00134C0 7.00134 3.21629 14 10.0023 14C16.7856 14 20 7.00182 20 7.00182C20 7.00182 16.9398 0.37904 10.5121 0.0330052L10.5116 0.0325235ZM8.36668 3.46496C9.10193 3.46496 9.69793 4.13874 9.69793 4.96874C9.69793 5.80081 9.1021 6.47647 8.36668 6.47647C7.6324 6.47647 7.03726 5.80081 7.03726 4.96874C7.03693 4.13874 7.63206 3.46496 8.36668 3.46496ZM10.0022 12.0099C5.69137 12.0099 3.07091 8.69027 2.01618 7.00134C2.64974 5.98427 3.85748 4.37634 5.65925 3.25681C5.42059 3.89338 5.28962 4.5946 5.28962 5.32854C5.28962 8.27238 7.39803 10.6586 10.0004 10.6586C12.6034 10.6586 14.7125 8.27238 14.7125 5.32854C14.7125 4.59874 14.5812 3.902 14.3463 3.26812C16.1403 4.38837 17.3499 5.99163 17.9851 7.00303C16.9309 8.69013 14.3098 12.0102 10.0024 12.0102L10.0022 12.0099Z" fill="white"/>
</svg>
