<svg width="50" height="37" viewBox="0 0 50 37" fill="none" xmlns="http://www.w3.org/2000/svg">
<path d="M11.7345 11.4289C12.0794 11.0318 12.5816 10.8043 13.1126 10.8043C14.0119 10.8043 14.7649 11.4387 14.9039 12.3127L15.5551 16.4177H17.7032V13.077C17.7032 12.8553 17.8868 12.6753 18.1131 12.6753H26.7274L26.7271 6.46216H0V16.4179H11.9071L11.3234 12.8732C11.2383 12.3547 11.3882 11.8283 11.7353 11.429L11.7345 11.4289Z" fill="#DE7F29"/>
<path d="M6.17464 2.74501V0.607046C6.17464 0.385263 5.99105 0.205322 5.76477 0.205322C5.53848 0.205322 5.35489 0.385263 5.35489 0.607046V2.74472C3.81246 2.92904 2.58618 4.13801 2.40039 5.65851H9.12917C8.94334 4.13801 7.71703 2.92905 6.17467 2.74501H6.17464Z" fill="#DE7F29"/>
<path d="M21.3719 2.7448V0.401724C21.3719 0.17994 21.1883 0 20.962 0C20.7357 0 20.5522 0.17994 20.5522 0.401724V2.74452C19.0094 2.92857 17.7834 4.13753 17.5977 5.65831H24.3264C24.1406 4.13781 22.9146 2.92885 21.3719 2.7448H21.3719Z" fill="#DE7F29"/>
<path d="M32.7715 26.3038C33.1708 25.9729 33.6858 25.7733 34.2475 25.7733H43.8846L45.2415 17.2212H32.7715V26.3038Z" fill="#DE7F29"/>
<path d="M13.7723 2.74472V0.529898C13.7723 0.308114 13.5887 0.128174 13.3624 0.128174C13.1361 0.128174 12.9525 0.308114 12.9525 0.529898V2.74472C11.4098 2.92877 10.1838 4.13773 9.99805 5.65851H16.7268C16.541 4.13773 15.315 2.92877 13.7723 2.74472H13.7723Z" fill="#DE7F29"/>
<path d="M18.5215 13.4783H42.3993V16.4172H18.5215V13.4783Z" fill="#DE7F29"/>
<path d="M47.9412 4.58014C46.2832 4.19701 45.0495 5.3617 44.9975 5.41148C44.841 5.56215 44.5913 5.56516 44.4308 5.41831C44.3706 5.36307 42.9306 4.07123 41.0176 4.57682C39.0336 5.10133 38.4624 7.08099 38.4568 7.10094C38.4244 7.21772 38.3399 7.31398 38.2271 7.36293C38.1144 7.41188 37.985 7.40859 37.875 7.35335C37.721 7.27623 36.3295 6.62101 34.9292 7.35035C33.8747 7.89947 33.2146 9.04145 33.2467 10.2598C33.2503 10.3968 33.1825 10.5261 33.0667 10.603C32.9509 10.6798 32.8033 10.6935 32.6747 10.6391C32.3195 10.4887 31.0528 10.0446 29.6775 10.638C28.5273 11.1343 27.9616 12.0852 27.709 12.6753H42.8111C43.0374 12.6753 43.221 12.8553 43.221 13.0771V16.4178H45.3691L46.0204 12.3127C46.159 11.4388 46.9124 10.8043 47.8116 10.8043C48.3426 10.8043 48.8449 11.0318 49.1897 11.4289C49.5365 11.8281 49.6866 12.3546 49.6013 12.8731L49.0175 16.4178L50.0003 16.4175V6.15928C49.8142 5.82538 49.1833 4.86687 47.9414 4.57998L47.9412 4.58014Z" fill="#DE7F29"/>
<path d="M47.8112 11.6072C47.3187 11.6072 46.906 11.9556 46.8299 12.4358L44.6405 26.2364C44.6095 26.4319 44.4376 26.5763 44.2353 26.5763H34.2475C33.4336 26.5763 32.7715 27.2293 32.7715 28.0319V36.9999H34.8016V28.9813C34.8016 28.7595 34.9852 28.5795 35.2115 28.5795H43.7608C43.9871 28.5795 44.1707 28.7595 44.1707 28.9813V36.9999H46.2008V30.8751C46.2008 29.287 46.3317 27.6867 46.5897 26.1192L48.7917 12.745C48.8389 12.4592 48.7563 12.1696 48.5652 11.9498C48.3766 11.7321 48.1017 11.6074 47.8115 11.6074L47.8112 11.6072Z" fill="#DE7F29"/>
<path d="M17.0397 25.7725H26.6769C27.2385 25.7725 27.7533 25.9724 28.1529 26.303V17.2202L15.6836 17.2205L17.0397 25.7725Z" fill="#DE7F29"/>
<path d="M28.9707 28.0315V36.9994H31.9509V17.2202H28.9707V28.0315Z" fill="#DE7F29"/>
<path d="M26.6762 26.5763H16.6883C16.4863 26.5763 16.3144 26.4319 16.2832 26.2364L14.0938 12.4358C14.0176 11.9556 13.6049 11.6072 13.1125 11.6072C12.8223 11.6072 12.5475 11.7319 12.3586 11.9493C12.1677 12.1689 12.0851 12.459 12.132 12.7445L14.334 26.1187C14.5921 27.6865 14.7229 29.2866 14.7229 30.8746V36.9994H16.7531V28.9808C16.7531 28.759 16.9367 28.5791 17.163 28.5791H25.7122C25.9385 28.5791 26.1221 28.759 26.1221 28.9808V36.9994H28.1523V28.0315C28.1525 27.2291 27.4904 26.5761 26.6765 26.5761L26.6762 26.5763Z" fill="#DE7F29"/>
</svg>
