<svg width="50" height="38" viewBox="0 0 50 38" fill="none" xmlns="http://www.w3.org/2000/svg">
<path d="M3.86072 10.6055L5.34242 10.1045V10.1048C6.17921 9.82288 6.87374 9.23432 7.28288 8.46194C7.69165 7.68922 7.78356 6.79102 7.53899 5.95357L6.52264 2.45601C6.26076 1.55974 5.63587 0.808953 4.79522 0.380332C3.95459 -0.0486678 2.97172 -0.117637 2.07793 0.189325L0.596227 0.698664C0.176298 0.832819 -0.0728962 1.25803 0.0190124 1.68358L4.326 20.2662V37.9999H6.0488V24.4176H9.49438V19.3242H5.87652L3.86072 10.6055Z" fill="#DE7F29"/>
<path d="M17.5568 31.0128C17.0299 30.7327 16.4178 30.6513 15.834 30.7835L17.2984 37.9992H19.0212L17.5998 31.0465L17.5568 31.0128Z" fill="#DE7F29"/>
<path d="M49.4041 0.698424L47.9224 0.189085C47.0287 -0.117887 46.0458 -0.0489078 45.2051 0.380092C44.3645 0.808713 43.7395 1.55943 43.4777 2.45577L42.4613 5.95333C42.2167 6.79086 42.3087 7.68906 42.7174 8.4617C43.1266 9.23405 43.8211 9.82256 44.6579 10.1046L46.1396 10.6056L44.1237 19.3234H40.5059V24.4168H43.9515V37.9992H45.6742V20.2655L49.9812 1.68285V1.68322C50.0731 1.25764 49.8239 0.832434 49.404 0.698308L49.4041 0.698424Z" fill="#DE7F29"/>
<path d="M32.4509 31.013H32.3647L30.9434 37.9994H32.6662L34.139 30.7838C33.5668 30.6561 32.9669 30.7375 32.4509 31.013V31.013Z" fill="#DE7F29"/>
<path d="M37.9201 13.3811H25.8606V10.5714C28.3029 9.90329 30.2037 8.01036 30.8567 5.59667C31.8903 1.56445 28.169 -0.676446 24.9992 2.07379C21.8205 -0.685177 18.108 1.58151 19.1417 5.59667C19.7946 8.01036 21.6954 9.90335 24.1378 10.5714V13.3811H12.0782C11.6025 13.3811 11.2168 13.7612 11.2168 14.23V29.1532C11.2168 29.3783 11.3076 29.5943 11.4691 29.7535C11.6306 29.9126 11.8498 30.0021 12.0782 30.0021C14.3609 30.0021 14.5847 29.0175 16.3852 29.0175C18.1856 29.0175 18.3749 30.0021 20.6922 30.0021C22.5872 30.0021 23.0353 29.3483 24.1378 29.1024V36.301H21.5536V37.9988H28.4447V36.301H25.8606V29.1024C26.963 29.34 27.4195 30.0021 29.3061 30.0021C31.6234 30.0021 31.7784 29.0175 33.6131 29.0175C35.4479 29.0175 35.6028 30.0021 37.9201 30.0021C38.1485 30.0021 38.3677 29.9126 38.5292 29.7535C38.6908 29.5943 38.7815 29.3783 38.7815 29.1532V14.23C38.7815 14.0049 38.6908 13.7889 38.5292 13.6297C38.3677 13.4706 38.1485 13.3811 37.9201 13.3811Z" fill="#DE7F29"/>
</svg>
