<svg width="50" height="33" viewBox="0 0 50 33" fill="none" xmlns="http://www.w3.org/2000/svg">
<path d="M0 13.049L0.429687 29.495C1.17187 29.7116 1.80451 29.7116 2.38281 29.4719C2.39048 29.4719 2.3985 29.4643 2.3985 29.4643C2.43757 29.4487 2.47663 29.4256 2.52336 29.41C2.53103 29.4024 2.53103 29.4024 2.53905 29.4024C2.77343 29.2863 3.00013 29.116 3.21881 28.9149C3.36739 28.7757 3.60177 28.7757 3.74999 28.8994C4.7266 29.7431 5.62499 29.7431 6.65632 28.8918C6.664 28.8842 6.67202 28.8762 6.68771 28.8762C6.75014 28.8299 6.82827 28.8064 6.91442 28.8064C6.95348 28.8064 7.00022 28.814 7.03928 28.8296L7.04695 28.8372C7.08601 28.8527 7.12507 28.8759 7.16414 28.9146H7.1875C7.96108 29.6266 8.89857 29.6266 10.1639 28.899C10.2968 28.8216 10.4764 28.8292 10.6013 28.9222C11.484 29.5644 12.3515 29.5644 13.3433 28.9146C13.4839 28.814 13.6792 28.8296 13.8121 28.9301C14.7339 29.6729 15.5699 29.6729 16.4136 28.9377C16.5541 28.8216 16.7575 28.814 16.9057 28.9222C17.968 29.6885 18.8903 29.6961 19.804 28.9377C19.9369 28.8292 20.1399 28.814 20.2804 28.9146C21.46 29.6961 22.3274 29.7116 23.0852 28.9609C23.2258 28.8292 23.4368 28.8061 23.5931 28.9146C24.7182 29.6809 25.6477 29.6885 26.5151 28.9377C26.648 28.8292 26.851 28.814 26.9995 28.9146C28.0699 29.6266 29.0699 29.6266 30.0464 28.9222C30.187 28.8216 30.3903 28.8216 30.5309 28.9298C31.4998 29.6881 32.3354 29.6961 33.1714 28.9453C33.3043 28.8216 33.5153 28.8137 33.6635 28.9142C34.812 29.7268 35.6009 29.7424 36.2964 28.9761C36.4212 28.8368 36.6246 28.8057 36.7885 28.8987C38.1243 29.657 39.1165 29.6802 39.9058 28.945C40.0387 28.8289 40.2497 28.8133 40.3979 28.9139C41.3745 29.5793 42.1871 29.6336 42.9056 29.0918C42.968 29.0455 43.0228 28.9989 43.0852 28.9446C43.2257 28.8209 43.4368 28.813 43.5853 28.9215C44.6714 29.7109 45.5775 29.7185 46.4369 28.9446C46.5151 28.8748 46.6089 28.8441 46.7104 28.8441C46.8042 28.8441 46.898 28.8828 46.9838 28.9526C47.7727 29.6722 48.601 29.8581 49.5696 29.5099L50 13.0488L0 13.049Z" fill="#FB8F2C"/>
<path d="M3.50579 29.7102C3.34954 29.8339 3.17759 29.9424 3.01367 30.0429V32.5582C3.01367 32.8059 3.20898 32.9994 3.45906 32.9994H4.79486C4.97447 32.9994 5.14642 32.8833 5.20885 32.7054L6.15402 30.1203C5.25563 30.4762 4.36519 30.3449 3.50581 29.7102L3.50579 29.7102Z" fill="#FB8F2C"/>
<path d="M43.7832 29.9588L44.7912 32.7061C44.8536 32.8841 45.0099 33.0002 45.2052 33.0002H46.541C46.783 33.0002 46.9783 32.8067 46.9783 32.559V29.9432C46.8925 29.889 46.7987 29.8271 46.7049 29.7573C46.0175 30.2604 45.0332 30.5779 43.7832 29.9587L43.7832 29.9588Z" fill="#FB8F2C"/>
<path d="M33.3062 12.4985H47.7669L48.47 10.5637C48.5405 10.3547 48.5091 10.1381 48.3842 9.95219C48.3218 9.8672 48.2513 9.80501 48.1889 9.76631L48.1265 9.72001H48.1031C48.0173 9.68132 47.9235 9.66577 47.8297 9.66577L33.3922 9.66612C33.1735 9.66612 32.9702 9.76666 32.853 9.92939C32.7201 10.0918 32.681 10.3088 32.7281 10.5254L33.3062 12.4985Z" fill="#FB8F2C"/>
<path d="M48.1012 9.09359C47.9058 5.50243 45.1481 2.63141 41.6482 2.14389V1.02927C41.6482 0.456427 41.1795 0 40.6092 0C40.0309 0 39.5702 0.464352 39.5702 1.02927V2.14389C36.0623 2.62379 33.3125 5.50287 33.1173 9.09359L33.1016 9.34132H48.1176L48.1012 9.09359Z" fill="#FB8F2C"/>
<path d="M29.6952 12.6305L32.1799 8.69116H18.1094L20.1406 12.6305H29.6952Z" fill="#FB8F2C"/>
<path d="M2.67202 12.4992H15.3202C15.7422 12.4992 16.0938 12.1585 16.0938 11.7329C16.0938 11.3072 15.7499 10.9666 15.3202 10.9666L2.67202 10.9669C2.25 10.9669 1.89844 11.3076 1.89844 11.7332C1.89844 12.1589 2.25 12.4992 2.67202 12.4992V12.4992Z" fill="#FB8F2C"/>
<path d="M15.2402 10.418C15.0996 7.37655 12.7716 4.94636 9.78714 4.56736H9.81051V3.51501C9.81051 3.06621 9.44325 2.70239 8.9902 2.70239C8.53715 2.70239 8.16989 3.06621 8.16989 3.51501V4.56736H8.19325C5.21683 4.93877 2.88844 7.36904 2.74791 10.418L2.74023 10.6657H15.2482L15.2402 10.418Z" fill="#FB8F2C"/>
<path d="M21.1716 6.96562C21.0467 7.29074 21.2106 7.65455 21.5388 7.77824C21.6093 7.80933 21.6874 7.81693 21.7655 7.81693C22.0233 7.81693 22.2657 7.65455 22.3591 7.41442C22.7421 6.43946 22.4373 5.55702 22.1952 4.84493C22.0547 4.43482 21.9922 4.19469 22.0466 4.1173C22.2029 4.03991 22.3124 3.91622 22.3668 3.75349C22.4216 3.59111 22.4135 3.42077 22.3354 3.27359C22.2339 3.05696 22.0072 2.91772 21.7652 2.91772C21.6714 2.91772 21.5775 2.94087 21.4917 2.97957C20.398 3.50576 20.7572 4.55058 20.9916 5.24711C21.1873 5.8203 21.3902 6.40834 21.1716 6.96565L21.1716 6.96562Z" fill="#FB8F2C"/>
<path d="M24.5407 6.96562C24.4158 7.29074 24.5798 7.65455 24.908 7.77824C24.9784 7.80933 25.0565 7.81693 25.1347 7.81693C25.3924 7.81693 25.6348 7.65455 25.7283 7.41442C26.1112 6.43946 25.8064 5.55702 25.5644 4.84493C25.4238 4.43482 25.3614 4.19469 25.4158 4.1173C25.572 4.03991 25.6815 3.91622 25.7359 3.75349C25.7907 3.59111 25.7827 3.42077 25.7046 3.27359C25.6031 3.05696 25.3764 2.91772 25.1343 2.91772C25.0405 2.91772 24.9467 2.94087 24.8609 2.97957C23.7671 3.50576 24.1264 4.55058 24.3607 5.24711C24.5487 5.8203 24.7517 6.40834 24.5407 6.96565L24.5407 6.96562Z" fill="#FB8F2C"/>
<path d="M27.8962 6.96562C27.7713 7.29074 27.9352 7.65455 28.2634 7.77824C28.3339 7.80933 28.412 7.81693 28.4901 7.81693C28.7479 7.81693 28.9903 7.65455 29.0837 7.41442C29.4667 6.43946 29.1619 5.55702 28.9198 4.84493C28.7793 4.43482 28.7168 4.19469 28.7712 4.1173C28.9275 4.03991 29.037 3.91622 29.0914 3.75349C29.1462 3.59111 29.1381 3.42077 29.06 3.27359C28.9585 3.05696 28.7318 2.91772 28.4898 2.91772C28.396 2.91772 28.3021 2.94087 28.2163 2.97957C27.1226 3.50576 27.4818 4.55058 27.7162 5.24711C27.9119 5.8203 28.1152 6.40834 27.8962 6.96565L27.8962 6.96562Z" fill="#FB8F2C"/>
</svg>
