<svg width="21" height="19" viewBox="0 0 21 19" fill="none" xmlns="http://www.w3.org/2000/svg">
<path opacity="0.4" d="M19.9999 13.9402C19.9999 16.7302 17.7599 18.9902 14.9699 19.0002H14.9599H5.04988C2.26988 19.0002 -0.00012207 16.7502 -0.00012207 13.9602V13.9502C-0.00012207 13.9502 0.00587793 9.52424 0.0138779 7.29824C0.0148779 6.88024 0.494878 6.64624 0.821878 6.90624C3.19788 8.79124 7.44688 12.2282 7.49988 12.2732C8.20988 12.8422 9.10988 13.1632 10.0299 13.1632C10.9499 13.1632 11.8499 12.8422 12.5599 12.2622C12.6129 12.2272 16.7669 8.89324 19.1789 6.97724C19.5069 6.71624 19.9889 6.95024 19.9899 7.36724C19.9999 9.57624 19.9999 13.9402 19.9999 13.9402Z" fill="#FB8F2C"/>
<path d="M19.973 2.674C19.107 1.042 17.403 0 15.527 0H5.54695C3.67095 0 1.96695 1.042 1.10095 2.674C0.906954 3.039 0.998954 3.494 1.32195 3.752L8.74695 9.691C9.26695 10.111 9.89695 10.32 10.527 10.32C10.531 10.32 10.534 10.32 10.537 10.32C10.54 10.32 10.544 10.32 10.547 10.32C11.177 10.32 11.807 10.111 12.327 9.691L19.752 3.752C20.075 3.494 20.167 3.039 19.973 2.674Z" fill="#FB8F2C"/>
</svg>
