<svg width="20" height="20" viewBox="0 0 20 20" fill="none" xmlns="http://www.w3.org/2000/svg">
<path d="M2.72721 12.727C2.00404 12.727 1.31035 12.4397 0.79884 11.9282C0.287331 11.4168 0 10.7232 0 9.99983V2.72719C0 2.00402 0.287331 1.31034 0.79884 0.798833C1.31035 0.287329 2.00404 0 2.72721 0H13.6361C14.3594 0 15.0531 0.287329 15.5646 0.798833C16.076 1.31034 16.3633 2.00402 16.3633 2.72719H14.5452C14.5452 2.48613 14.4494 2.25496 14.2789 2.08451C14.1085 1.91391 13.8773 1.81818 13.6361 1.81818H2.72722C2.48615 1.81818 2.25498 1.91391 2.08453 2.08451C1.91393 2.25496 1.8182 2.48615 1.8182 2.72719V9.99983C1.8182 10.2409 1.91393 10.4722 2.08453 10.6427C2.25498 10.8131 2.48617 10.9088 2.72722 10.9088L2.72721 12.727ZM19.9998 6.36371V13.6363V13.6362C19.9998 14.3595 19.7125 15.0532 19.201 15.5647C18.6895 16.0761 17.9958 16.3634 17.2726 16.3634H16.3634V19.0906C16.3625 19.2702 16.3087 19.4453 16.2084 19.5942C16.1081 19.743 15.9659 19.8588 15.7999 19.927C15.692 19.9778 15.5738 20.0028 15.4544 19.9998C15.2128 20.0011 14.9805 19.9063 14.809 19.736L11.4455 16.3634H6.36393C5.64059 16.3634 4.94691 16.0761 4.4354 15.5647C3.92404 15.0532 3.63671 14.3595 3.63671 13.6362V6.36397C3.63671 5.64064 3.92404 4.94696 4.4354 4.43546C4.94691 3.92411 5.64059 3.63678 6.36393 3.63678H17.2728C17.996 3.63678 18.6897 3.92411 19.2012 4.43546C19.7127 4.94696 20 5.64064 20 6.36397L19.9998 6.36371ZM10.9089 9.0909H7.27262V10.9091H10.9089V9.0909ZM16.3633 9.0909H12.7271V10.9091H16.3633V9.0909Z" fill="white"/>
</svg>
