<svg width="50" height="43" viewBox="0 0 50 43" fill="none" xmlns="http://www.w3.org/2000/svg">
<path d="M21.4707 11.5047H18.8388C18.6809 11.5047 18.5755 11.6093 18.5755 11.766V13.3333C18.5755 13.49 18.4176 13.6467 18.2597 13.6467H16.5751C16.4172 13.6467 16.2593 13.49 16.2593 13.3333V11.766C16.2593 11.6093 16.1539 11.5047 15.996 11.5047H13.3641C12.9429 11.5047 12.6797 11.8181 12.6797 12.236V15.8928L14.8905 16.2062C16.4169 16.415 17.575 17.7209 17.5225 19.184V19.3929H21.4704C21.8915 19.3929 22.1548 19.0795 22.1548 18.7136L22.1552 12.236C22.1552 11.8705 21.8919 11.5046 21.4707 11.5046L21.4707 11.5047Z" fill="#FB8F2C"/>
<path d="M5.36237 29.58L2.52006 25.7141L2.99372 29.1096C3.04623 29.2662 3.04623 29.4229 2.94122 29.5796L0.150981 36.7889C-0.21767 37.729 0.0984747 38.8263 0.993288 39.3488C1.20368 39.4534 1.36194 39.5055 1.57233 39.5576C2.46715 39.7667 3.41451 39.2967 3.78317 38.4087L5.83608 33.6025L5.46743 29.8412C5.46743 29.7367 5.41493 29.6321 5.36242 29.58L5.36237 29.58Z" fill="#FB8F2C"/>
<path d="M14.7848 17.46L11.2055 16.9899C11.2055 16.9899 8.94222 13.7511 8.67893 13.3332C8.41566 12.9673 8.09988 12.5497 7.73162 11.975C6.88931 10.7736 2.88884 10.4602 2.62565 12.9152C2.46776 14.3779 1.83621 21.8485 1.83621 21.8485C1.78371 22.3185 1.9416 22.8411 2.20487 23.2066L6.41607 28.8486C6.62647 29.1099 6.73185 29.4232 6.73185 29.7366L7.46877 37.5205C7.57415 38.5132 8.15319 39.4533 9.15341 39.61C9.3638 39.6621 9.57456 39.6621 9.73245 39.61C10.6798 39.4533 11.4695 38.6698 11.4171 37.7293L10.9959 28.5351C10.9959 28.2738 10.8905 28.0125 10.7855 27.8037C10.7855 27.8037 8.25896 23.0498 8.10104 22.7364C7.99566 22.5276 7.99566 22.2139 8.04853 22.0051C8.04853 21.7963 8.3118 18.5571 8.3118 18.5571L8.94336 19.4973C9.20663 19.8631 9.62778 20.124 10.1014 20.1765L14.523 20.7512H14.9967C15.7861 20.6466 16.3652 20.0198 16.418 19.1838C16.3115 18.2958 15.6271 17.5645 14.7848 17.4599L14.7848 17.46Z" fill="#FB8F2C"/>
<path d="M9.25674 6.85543C9.25674 8.75978 7.70135 10.3034 5.78285 10.3034C3.86398 10.3034 2.30859 8.75978 2.30859 6.85543C2.30859 4.95146 3.86398 3.40747 5.78285 3.40747C7.70135 3.40747 9.25674 4.95146 9.25674 6.85543Z" fill="#FB8F2C"/>
<path d="M49.2098 4.66113L34.6815 0.0638783C33.9445 -0.197398 33.1551 0.377265 33.1551 1.16111V3.30306H26.0487C25.4171 3.30306 24.8906 3.82562 24.8906 4.45235V38.5654C24.8906 39.1921 25.4172 39.7146 26.0487 39.7146H33.1551V41.8566C33.1551 42.6401 33.892 43.1626 34.6815 42.9538L49.2098 38.3041C49.6835 38.1474 49.9992 37.7294 49.9992 37.2068V5.75809C49.9992 5.23553 49.6834 4.76542 49.2098 4.66085V4.66113ZM33.1549 37.2592H27.312V5.70594H33.1549V37.2592ZM37.9977 22.8408C37.2083 22.8408 36.6292 22.214 36.6292 21.4826C36.6292 20.6992 37.2607 20.1245 37.9977 20.1245C38.7871 20.1245 39.3662 20.7513 39.3662 21.4826C39.4191 22.2661 38.7872 22.8408 37.9977 22.8408Z" fill="#FB8F2C"/>
</svg>
