<svg width="51" height="53" viewBox="0 0 51 53" fill="none" xmlns="http://www.w3.org/2000/svg">
<path fill-rule="evenodd" clip-rule="evenodd" d="M6.12782 23.4418C8.49244 22.5993 10.9808 21.4794 12.8996 19.8582C15.1786 17.9325 16.1055 15.4524 16.7279 12.8419C17.527 9.48791 17.8463 5.91512 18.8152 2.55574C19.174 1.3082 19.8644 0.836625 20.1607 0.627343C20.9095 0.0987022 21.6663 -0.0426033 22.3785 0.0103967C23.2224 0.0715506 24.3816 0.390888 25.144 1.80558C25.2527 2.00807 25.394 2.31657 25.4891 2.73921C25.5585 3.04906 25.6033 4.01799 25.6767 4.41752C25.8601 5.40142 26.0137 6.38535 26.1578 7.37469C26.6375 10.6675 26.9134 13.4642 28.4286 16.4893C30.4848 20.5961 32.545 23.1089 35.3391 24.2219C38.0407 25.2982 41.2709 25.0957 45.3981 24.2518C45.7909 24.1567 46.1795 24.0751 46.5641 24.0085C48.3838 23.6905 50.1233 24.8851 50.4807 26.6979C50.8381 28.5095 49.6817 30.2747 47.8783 30.6729C47.5019 30.7558 47.1308 30.8346 46.7639 30.9067C41.1867 32.2874 34.7302 37.215 30.978 41.5298C29.8216 42.8602 28.1283 46.5797 26.401 48.9525C25.1263 50.7028 23.6939 51.8566 22.4913 52.2643C21.6854 52.5388 21.0059 52.4967 20.4447 52.3581C19.6293 52.157 18.9525 51.7153 18.4334 51.0127C18.1507 50.6281 17.8884 50.113 17.7634 49.4553C17.7036 49.1386 17.6968 48.3342 17.6982 47.97C17.3462 46.7591 16.9154 45.5768 16.6015 44.3551C15.8527 41.4401 14.3836 39.5946 12.6387 37.1566C11.0066 34.8749 9.25354 33.4412 6.68372 32.2969C6.34941 32.2154 3.65184 31.5549 2.6992 31.1757C1.30761 30.6199 0.644396 29.689 0.403858 29.1875C-0.00519367 28.3368 -0.0472847 27.5935 0.0342537 26.9738C0.155202 26.0592 0.565615 25.2765 1.29403 24.6445C1.74521 24.2518 2.41926 23.8699 3.32162 23.6837C4.01877 23.5383 5.86826 23.4541 6.12782 23.4418ZM21.9531 18.6908C22.0781 18.9694 22.2113 19.2494 22.3527 19.5321C25.3641 25.5469 28.7317 28.9049 32.8249 30.5343L32.9622 30.5873C30.2238 32.6203 27.745 34.8925 25.8506 37.071C25.0706 37.9679 24.0378 39.8311 22.9221 41.7418C21.9083 38.4463 20.2503 36.117 18.1657 33.202C16.5729 30.9774 14.9041 29.3031 12.8534 27.9387C14.4448 27.122 15.9628 26.1652 17.285 25.0482C19.4866 23.1877 20.942 21.0323 21.9531 18.6908Z" fill="#FFCA0E"/>
</svg>
