<svg width="49" height="50" viewBox="0 0 49 50" fill="none" xmlns="http://www.w3.org/2000/svg">
<path d="M3.46124 32.7817L0.0266796 42.0959C-0.118177 42.4887 0.261388 42.8754 0.661977 42.7536C17.4173 37.6595 29.6403 45.1026 33.7154 49.5528C25.5589 36.4336 10.6961 32.7147 3.93468 32.4577C3.72153 32.4496 3.53504 32.5816 3.46124 32.7817Z" fill="#E18041"/>
<path d="M47.6855 14.58L37.902 12.8974C37.6917 12.8612 37.4842 12.9567 37.3846 13.1454C34.2265 19.1294 30.0158 33.8604 37.299 47.4837C35.4826 41.7295 35.1482 27.4225 47.9375 15.4591C48.2432 15.173 48.0981 14.651 47.6855 14.58Z" fill="#E18041"/>
<path d="M9.64522 14.9217L7.76398 1.33466C7.70258 0.891231 8.21013 0.596768 8.56461 0.870163L19.4217 9.24375C19.7476 9.49504 19.9879 9.84071 20.1101 10.2336L26.8899 32.0385L35.1925 46.4191L35.5657 49.0092L33.4092 47.3676C31.2913 43.5458 28.8077 39.1112 25.8558 33.8901L10.1232 15.9668C9.86509 15.6727 9.69889 15.3093 9.64522 14.9217Z" fill="#E18041"/>
</svg>
